<svg id="Layer_1" data-name="Layer 1" xmlns="http://www.w3.org/2000/svg" viewBox="0 0 127.74 116.55"><defs><style>.cls-1{fill:#fbaf03 ;}.cls-2{fill:#ffc655;}.cls-3{fill:#fbaf03 ;}.cls-4{fill:#fff;}</style></defs><path class="cls-1" d="M930.94,854.39c5,0,10,0,15,0,3.23,0,3.95-.7,4-3.87q0-15,0-30c0-3.12-.82-4-3.94-4q-15.3,0-30.6,0c-3.09,0-4,.92-4,3.94q0,15,0,30c0,3.06.86,3.89,4,3.91C920.55,854.41,925.74,854.39,930.94,854.39ZM975.7,820c1.14-5.2-.3-9.6-3.28-11.33s-7.66-1-10.72,1.8a15,15,0,0,0-3.77,5,54.73,54.73,0,0,0-3.41,30.84c.93,5.26,3.84,7.79,9.12,8.56,5.8.86,11.62,1.67,17.38,2.74a4.72,4.72,0,0,1,3,2.4c2.28,5.2,4.26,10.52,6.37,15.79,1.6,4,5.15,5.79,8.71,4.44s5.13-5,3.57-9.05c-2.73-7.09-5.58-14.13-8.36-21.21a6.74,6.74,0,0,0-5.81-4.51c-2.77-.38-5.51-.86-8.26-1.34-7.87-1.39-7.92-1.4-6.92-9.56.21-1.73-.42-2.7-1.49-4a99.14,99.14,0,0,1-8.12-11.09,4.92,4.92,0,0,1,2-7.35c2.71-1.38,5.49-.22,7.11,2.89C973.65,816.49,974.54,817.94,975.7,820Zm-12.15,68.35h41v-6h-3.22c-9,0-18.09,0-27.13,0-1.94,0-3.11-.51-3.61-2.42-.92-3.53-2-7-2.81-10.57a8.87,8.87,0,0,1,.31-2.75,76.52,76.52,0,0,0,.65-7.83c0-.55-1.49-1.57-2.3-1.58q-20.79-.15-41.56,0c-.83,0-2.35.94-2.37,1.48-.11,3.1-1.53,6.54,1.76,9-.46,1.2-1,2.25-1.26,3.36-1.37,5-2.76,10-4,15-.17.72.56,2.36,1,2.4,2.51.23,5.06.11,7.62.11-1.2-14,8.8-21.25,17.68-21.43C953.72,866.93,964.7,873.66,963.55,888.32Zm59,12.23A15.47,15.47,0,1,0,1007.09,885,15.42,15.42,0,0,0,1022.57,900.55Zm-77.23,0a15.47,15.47,0,1,0-15.24-15.76A15.38,15.38,0,0,0,945.34,900.55ZM1000.72,833l-.89.06c-.75,6.83-6,5.53-10.88,5.71.76.89,1.21,1.78,1.55,1.74,2.32-.25,4.61-.69,7.14-1.11l11.49,33.22a5,5,0,0,0,.92-.41c9.2-7.48,19-6.78,26.81,1.88a6.92,6.92,0,0,0,2.08,1.07c0-.86.35-1.9,0-2.53a19.47,19.47,0,0,0-16.39-10.22c-1.51-.1-2.44-.45-3-2-2.14-6.33-6.45-10.78-12.29-13.91-1.16-.61-1.93-1.94-3.23-3.32,2.79-.76,4.15-.68,5.35,1.43a9.82,9.82,0,0,0,4.24,3.63c2.82,1.32,4.74.34,5.35-2.71a20.54,20.54,0,0,0,.34-7.4c-.32-1.85-1.79-4.9-2.82-4.93-2.09-.06-4.26,1.49-6.33,2.53a3,3,0,0,0-1.11,1.65c-.86,2.41-2.9,1.52-4.41,1.4-.8-.07-1.67-1.21-2.21-2.06A28,28,0,0,1,1000.72,833Zm-9.2,4.82c.81,0,1.29,0,1.77,0,3.59-.07,5.38-1.47,5.39-4.22s-1.76-4.12-5.37-4.15c-9.9-.1-16.64-5.06-21.06-13.63-1.61-3.11-3.71-4.07-6.19-2.84-2.31,1.15-2.95,3.57-1.47,6.48C970.28,830.58,979.07,837.17,991.52,837.81Zm-.19-42.14A11.67,11.67,0,1,1,979.67,784,11.66,11.66,0,0,1,991.33,795.67Z" transform="translate(-911.35 -784)"/><path class="cls-1" d="M930.94,854.39c-5.2,0-10.39,0-15.59,0-3.12,0-4-.85-4-3.91q0-15,0-30c0-3,.91-3.93,4-3.94q15.3,0,30.6,0c3.12,0,3.93.85,3.94,4q0,15,0,30c0,3.17-.73,3.86-4,3.87C941,854.41,935.94,854.39,930.94,854.39Z" transform="translate(-911.35 -784)"/><path class="cls-2" d="M975.7,820c-1.16-2-2.05-3.48-2.83-5-1.62-3.11-4.4-4.27-7.11-2.89a4.92,4.92,0,0,0-2,7.35,99.14,99.14,0,0,0,8.12,11.09c1.07,1.3,1.7,2.27,1.49,4-1,8.16-1,8.17,6.92,9.56,2.75.48,5.49,1,8.26,1.34a6.74,6.74,0,0,1,5.81,4.51c2.78,7.08,5.63,14.12,8.36,21.21,1.56,4,.06,7.67-3.57,9.05s-7.11-.45-8.71-4.44c-2.11-5.27-4.09-10.59-6.37-15.79a4.72,4.72,0,0,0-3-2.4c-5.76-1.07-11.58-1.88-17.38-2.74-5.28-.77-8.19-3.3-9.12-8.56a54.73,54.73,0,0,1,3.41-30.84,15,15,0,0,1,3.77-5c3.06-2.82,7.86-3.47,10.72-1.8S976.84,814.77,975.7,820Z" transform="translate(-911.35 -784)"/><path class="cls-1" d="M963.55,888.32c1.15-14.66-9.83-21.39-18.25-21.23-8.88.18-18.88,7.45-17.68,21.43-2.56,0-5.11.12-7.62-.11-.43,0-1.16-1.68-1-2.4,1.2-5,2.59-10,4-15,.31-1.11.8-2.16,1.26-3.36-3.29-2.41-1.87-5.85-1.76-9,0-.54,1.54-1.48,2.37-1.48q20.77-.15,41.56,0c.81,0,2.3,1,2.3,1.58a76.52,76.52,0,0,1-.65,7.83,8.87,8.87,0,0,0-.31,2.75c.85,3.55,1.89,7,2.81,10.57.5,1.91,1.67,2.44,3.61,2.42,9-.09,18.08,0,27.13,0h3.22v6Z" transform="translate(-911.35 -784)"/><path class="cls-3" d="M1022.57,900.55a15.47,15.47,0,1,1,15.59-15.49A15.35,15.35,0,0,1,1022.57,900.55Zm6-15.52a6,6,0,0,0-6.09-6,6,6,0,0,0,.11,12A5.94,5.94,0,0,0,1028.57,885Z" transform="translate(-911.35 -784)"/><path class="cls-3" d="M945.34,900.55a15.47,15.47,0,1,1,15.77-15.31A15.26,15.26,0,0,1,945.34,900.55Zm6.27-15.46a6,6,0,1,0-6.11,6A6.1,6.1,0,0,0,951.61,885.09Z" transform="translate(-911.35 -784)"/><path class="cls-1" d="M1000.72,833a28,28,0,0,0,1.71,3.68c.54.85,1.41,2,2.21,2.06,1.51.12,3.55,1,4.41-1.4a3,3,0,0,1,1.11-1.65c2.07-1,4.24-2.59,6.33-2.53,1,0,2.5,3.08,2.82,4.93a20.54,20.54,0,0,1-.34,7.4c-.61,3-2.53,4-5.35,2.71a9.82,9.82,0,0,1-4.24-3.63c-1.2-2.11-2.56-2.19-5.35-1.43,1.3,1.38,2.07,2.71,3.23,3.32,5.84,3.13,10.15,7.58,12.29,13.91.54,1.59,1.47,1.94,3,2a19.47,19.47,0,0,1,16.39,10.22c.37.63,0,1.67,0,2.53a6.92,6.92,0,0,1-2.08-1.07c-7.86-8.66-17.61-9.36-26.81-1.88a5,5,0,0,1-.92.41l-11.49-33.22c-2.53.42-4.82.86-7.14,1.11-.34,0-.79-.85-1.55-1.74,4.87-.18,10.13,1.12,10.88-5.71Z" transform="translate(-911.35 -784)"/><path class="cls-2" d="M991.52,837.81c-12.45-.64-21.24-7.23-26.93-18.36-1.48-2.91-.84-5.33,1.47-6.48,2.48-1.23,4.58-.27,6.19,2.84,4.42,8.57,11.16,13.53,21.06,13.63,3.61,0,5.39,1.43,5.37,4.15s-1.8,4.15-5.39,4.22C992.81,837.82,992.33,837.81,991.52,837.81Z" transform="translate(-911.35 -784)"/><path class="cls-4" d="M1028.57,885a5.94,5.94,0,0,1-6,6.07,6,6,0,0,1-.11-12A6,6,0,0,1,1028.57,885Z" transform="translate(-911.35 -784)"/><path class="cls-4" d="M951.61,885.09a6,6,0,1,1-6.11-6A6.1,6.1,0,0,1,951.61,885.09Z" transform="translate(-911.35 -784)"/></svg>