<svg id="Layer_1" data-name="Layer 1" xmlns="http://www.w3.org/2000/svg" viewBox="0 0 30.47 26.4"><defs><style>.cls-1{fill:#222935;}.cls-2{fill:#ffc655;}.cls-3{fill:#fbaf03 ;}.cls-4{fill:#efeeed;}</style></defs><rect class="cls-1" x="1.14" y="12.33" width="1.87" height="12.06" rx="0.94"/><rect class="cls-1" x="14.14" y="14.33" width="1.87" height="12.06" rx="0.94"/><rect class="cls-1" x="27.14" y="12.33" width="1.87" height="12.06" rx="0.94"/><ellipse class="cls-2" cx="15.24" cy="11.88" rx="15.24" ry="4.13"/><rect class="cls-2" y="9.88" width="30.47" height="2"/><ellipse class="cls-3" cx="15.24" cy="9.88" rx="15.24" ry="4.13"/><polygon class="cls-4" points="19.82 10 10.65 10 11.65 0 18.82 0 19.82 10"/><path d="M1864.87,26h0a.37.37,0,0,1-.28-.13l-1-1.05a.4.4,0,0,1,0-.56.4.4,0,0,1,.56,0l.7.76,2.15-2.15a.39.39,0,0,1,.55,0,.39.39,0,0,1,0,.56l-2.43,2.43A.36.36,0,0,1,1864.87,26Z" transform="translate(-1850.36 -19.42)"/></svg>