<svg id="Layer_1" data-name="Layer 1" xmlns="http://www.w3.org/2000/svg" viewBox="0 0 90.07 102.32"><defs><style>.cls-1{fill:#fbaf03 ;}.cls-2{fill:#ffc655;}.cls-3{fill:#fff;}.cls-4{fill:#222935;}</style></defs><path class="cls-1" d="M780.77,840.61l-7.91-23.2a2.51,2.51,0,0,0-2.37-1.69h-41a2.51,2.51,0,0,0-2.37,1.69l-7.91,23.2a2.75,2.75,0,0,0-.13.81v68.79a2.5,2.5,0,0,0,2.5,2.5h56.8a2.5,2.5,0,0,0,2.5-2.5V841.42A2.75,2.75,0,0,0,780.77,840.61Z" transform="translate(-690.83 -815.72)"/><polygon class="cls-2" points="85.07 91.99 59.67 91.99 58.67 91.99 33.27 91.99 33.27 26.11 40.47 5 58.67 5 59.67 5 77.87 5 85.07 26.11 85.07 91.99"/><path class="cls-1" d="M770.49,893.47h-13.7a2.5,2.5,0,0,0,0,5h13.7a2.5,2.5,0,0,0,0-5Z" transform="translate(-690.83 -815.72)"/><path class="cls-1" d="M750.5,843.4h-6.36a2.5,2.5,0,0,0,0,5h11.72a2.5,2.5,0,0,0,0-5Z" transform="translate(-690.83 -815.72)"/><path class="cls-1" d="M770.49,900.33H749a2.5,2.5,0,0,0,0,5h21.48a2.5,2.5,0,0,0,0-5Z" transform="translate(-690.83 -815.72)"/><path class="cls-1" d="M749.5,854.83h-20a2.5,2.5,0,0,0-2.5,2.5v21.48a2.5,2.5,0,0,0,2.5,2.5h41a2.5,2.5,0,0,0,2.5-2.5V857.33a2.5,2.5,0,0,0-2.5-2.5h-21Z" transform="translate(-690.83 -815.72)"/><polygon class="cls-3" points="77.16 44.11 77.16 60.59 59.67 60.59 58.67 60.59 41.18 60.59 41.18 44.11 58.67 44.11 59.67 44.11 77.16 44.11"/><path class="cls-1" d="M741.62,834.75h16.76c3.77,0,6.83-2.5,6.83-5.58s-3.06-5.58-6.83-5.58H741.62c-3.77,0-6.83,2.5-6.83,5.58S737.85,834.75,741.62,834.75Z" transform="translate(-690.83 -815.72)"/><path class="cls-4" d="M736.82,869h-3.2l.16-2.8a2.48,2.48,0,0,0-1.26-2.31l-4.35-2.47a2.31,2.31,0,0,0-.95-.31l-26.09-3a2.49,2.49,0,0,0-2.49,1.31l-3.36,6.33a2.44,2.44,0,0,0-.25,1.63l.3,1.59h-2a2.5,2.5,0,0,0,0,5h2.73l3.74,41.73a2.51,2.51,0,0,0,2.49,2.28h24.78a2.51,2.51,0,0,0,2.49-2.28L733.31,874h3.51a2.5,2.5,0,0,0,0-5Z" transform="translate(-690.83 -815.72)"/><polygon class="cls-3" points="37.45 58.31 36.45 69.52 11.25 69.52 10.24 58.31 37.45 58.31"/><polygon class="cls-1" points="11.7 74.52 36 74.52 34.94 86.32 12.76 86.32 11.7 74.52"/><polygon class="cls-3" points="13.75 97.32 13.21 91.32 34.49 91.32 33.95 97.32 13.75 97.32"/><polygon class="cls-1" points="11.42 47.61 35.31 50.33 37.87 51.78 37.78 53.31 9.58 53.31 9.27 51.66 11.42 47.61"/><path class="cls-3" d="M741.62,827.67h16.76a1.53,1.53,0,1,1,0,3H741.62a1.53,1.53,0,1,1,0-3Z" transform="translate(-690.83 -815.72)"/></svg>