<?xml version="1.0" encoding="utf-8"?>
<!-- Generator: Adobe Illustrator 24.1.2, SVG Export Plug-In . SVG Version: 6.00 Build 0)  -->
<svg version="1.1" id="Layer_1" xmlns="http://www.w3.org/2000/svg" xmlns:xlink="http://www.w3.org/1999/xlink" x="0px" y="0px"
	 viewBox="0 0 681 504" style="enable-background:new 0 0 681 504;" xml:space="preserve">
<style type="text/css">
	.st0{fill:#F1F1F1;}
	.st1{fill:#E1E1E1;}
	.st2{fill:#ECECEC;}
	.st3{fill:#F5F5F5;}
	.st4{fill:#FAFAFA;}
	.st5{fill:#1A2E35;}
	.st6{fill:#F0F0F0;}
	.st7{fill:#009D06;}
	.st8{opacity:0.6;}
	.st9{fill:#FFFFFF;}
	.st10{opacity:0.3;}
	.st11{fill:#375A64;}
	.st12{fill:#FFBF9D;}
	.st13{fill:#FF9A6C;}
	.st14{fill:none;}
	.st15{opacity:0.2;fill:#FFFFFF;}
</style>
<g>
	<path class="st0" d="M619.6,43.9c-9.9-3-19.8-6-29.7-9.1c-0.8-0.2-1.5-0.7-2.3-1.1h-1.1c-4,1.3-7.9,2.8-12,4
		c-14,4.3-28.1,8.6-42.1,12.8c-0.5,0.2-1,0.2-1.5,0.3v14.4c0.2,1.2,0.4,2.4,0.5,3.7c0.6,9.9,0.9,19.9,1.8,29.8
		c0.1,1.5,0.3,3,0.5,4.5l17,33.7c2.8,2.8,6,5.4,9.5,7.9c8.2,5.6,16.8,10.8,25.2,16c0.8,0.5,2.3,0.6,3.1,0.1
		c11.5-6.6,23-13.3,32.9-22.2c10.8-9.6,17.1-21.6,18.9-35.8c1.4-11.3,1.7-22.7,2.5-34c0.1-1.2,0.3-2.4,0.5-3.7V50.9
		C635.4,48.6,627.5,46.3,619.6,43.9z M620.3,79.9c-14,14.1-28.1,28-42.5,42.3c-4.3-4.3-8.5-8.5-12.7-12.7
		c-3.6-3.6-7.2-7.1-10.7-10.8c-3.5-3.7-3.4-8.2,0-11.6c3.6-3.5,8-3.5,11.8,0.2c3.9,3.8,7.6,7.7,11.6,11.7c0.7-0.7,1.4-1.2,2-1.8
		c9.3-9.3,18.6-18.6,27.9-28c2.4-2.4,5.1-3.6,8.4-2.7c3.3,0.9,5.3,3.2,6,6.5C622.9,75.7,622.1,78.1,620.3,79.9z"/>
</g>
<g>
	<g>
		<g>
			<g>
				<g>
					<g>
						<g>
							<path class="st1" d="M579.9,189.2c0.3,0,0.6,15.6,0.6,34.9c0,19.3-0.3,34.9-0.6,34.9c-0.3,0-0.6-15.6-0.6-34.9
								C579.3,204.8,579.6,189.2,579.9,189.2z"/>
						</g>
					</g>
				</g>
			</g>
			<g>
				<g>
					<g>
						<g>
							<path class="st1" d="M589,196.9c0.3,0,0.6,11.9,0.6,26.6c0,14.7-0.3,26.6-0.6,26.6c-0.3,0-0.6-11.9-0.6-26.6
								C588.4,208.8,588.7,196.9,589,196.9z"/>
						</g>
					</g>
				</g>
			</g>
			<g>
				<g>
					<g>
						<g>
							<path class="st1" d="M599.2,204.5c0.3,0,0.6,8.6,0.6,19.3c0,10.6-0.3,19.3-0.6,19.3c-0.3,0-0.6-8.6-0.6-19.3
								C598.6,213.1,598.9,204.5,599.2,204.5z"/>
						</g>
					</g>
				</g>
			</g>
			<g>
				<g>
					<g>
						<g>
							<path class="st1" d="M608.1,211c0.3,0,0.6,4.8,0.6,10.7c0,5.9-0.3,10.7-0.6,10.7c-0.3,0-0.6-4.8-0.6-10.7
								C607.5,215.8,607.8,211,608.1,211z"/>
						</g>
					</g>
				</g>
			</g>
			<g>
				<g>
					<g>
						<g>
							<path class="st1" d="M616,216.3c0.3,0,0.6,2.6,0.6,5.9c0,3.3-0.3,5.9-0.6,5.9c-0.3,0-0.6-2.6-0.6-5.9
								C615.4,218.9,615.7,216.3,616,216.3z"/>
						</g>
					</g>
				</g>
			</g>
			<g>
				<g>
					<g>
						<g>
							<path class="st1" d="M624.9,210c0.3,0,0.6,4.8,0.6,10.7c0,5.9-0.3,10.7-0.6,10.7c-0.3,0-0.6-4.8-0.6-10.7
								C624.3,214.8,624.6,210,624.9,210z"/>
						</g>
					</g>
				</g>
			</g>
			<g>
				<g>
					<g>
						<g>
							<path class="st1" d="M633.3,201.3c0.3,0,0.6,9,0.6,20.2c0,11.2-0.3,20.2-0.6,20.2c-0.3,0-0.6-9-0.6-20.2
								C632.7,210.4,633,201.3,633.3,201.3z"/>
						</g>
					</g>
				</g>
			</g>
		</g>
		<g>
			<g>
				<g>
					<g>
						<g>
							<path class="st1" d="M526.9,204.5c0.3,0,0.6,8.6,0.6,19.3c0,10.6-0.3,19.3-0.6,19.3s-0.6-8.6-0.6-19.3
								C526.3,213.1,526.6,204.5,526.9,204.5z"/>
						</g>
					</g>
				</g>
			</g>
			<g>
				<g>
					<g>
						<g>
							<path class="st1" d="M535.8,211c0.3,0,0.6,4.8,0.6,10.7c0,5.9-0.3,10.7-0.6,10.7s-0.6-4.8-0.6-10.7
								C535.2,215.8,535.5,211,535.8,211z"/>
						</g>
					</g>
				</g>
			</g>
			<g>
				<g>
					<g>
						<g>
							<path class="st1" d="M543.7,216.3c0.3,0,0.6,2.6,0.6,5.9c0,3.3-0.3,5.9-0.6,5.9c-0.3,0-0.6-2.6-0.6-5.9
								C543.1,218.9,543.4,216.3,543.7,216.3z"/>
						</g>
					</g>
				</g>
			</g>
			<g>
				<g>
					<g>
						<g>
							<path class="st1" d="M552.6,206.8c0.3,0,0.6,6.2,0.6,13.9c0,7.7-0.3,13.9-0.6,13.9c-0.3,0-0.6-6.2-0.6-13.9
								C552,213.1,552.3,206.8,552.6,206.8z"/>
						</g>
					</g>
				</g>
			</g>
			<g>
				<g>
					<g>
						<g>
							<path class="st1" d="M561,201.3c0.3,0,0.6,9,0.6,20.2c0,11.2-0.3,20.2-0.6,20.2s-0.6-9-0.6-20.2
								C560.4,210.4,560.7,201.3,561,201.3z"/>
						</g>
					</g>
				</g>
			</g>
			<g>
				<g>
					<g>
						<g>
							<path class="st1" d="M571.2,197.1c0.3,0,0.6,11.5,0.6,25.7c0,14.2-0.3,25.7-0.6,25.7c-0.3,0-0.6-11.5-0.6-25.7
								C570.6,208.6,570.9,197.1,571.2,197.1z"/>
						</g>
					</g>
				</g>
			</g>
			<g>
				<g>
					<g>
						<g>
							<g>
								<path class="st1" d="M517.4,231.5c-0.3,0-0.6-4.8-0.6-10.7c0-5.9,0.3-10.7,0.6-10.7c0.3,0,0.6,4.8,0.6,10.7
									C518,226.7,517.7,231.5,517.4,231.5z"/>
							</g>
						</g>
					</g>
				</g>
				<g>
					<g>
						<g>
							<g>
								<path class="st1" d="M509.5,226.2c-0.3,0-0.6-2.6-0.6-5.9c0-3.3,0.3-5.9,0.6-5.9c0.3,0,0.6,2.6,0.6,5.9
									C510.1,223.6,509.8,226.2,509.5,226.2z"/>
							</g>
						</g>
					</g>
				</g>
			</g>
		</g>
	</g>
	<g>
		<g>
			<g>
				<g>
					<g>
						<path class="st1" d="M641.5,210c0.3,0,0.6,4.8,0.6,10.7c0,5.9-0.3,10.7-0.6,10.7c-0.3,0-0.6-4.8-0.6-10.7
							C640.9,214.8,641.2,210,641.5,210z"/>
					</g>
				</g>
			</g>
		</g>
		<g>
			<g>
				<g>
					<g>
						<path class="st1" d="M649.4,215.2c0.3,0,0.6,2.6,0.6,5.9c0,3.3-0.3,5.9-0.6,5.9c-0.3,0-0.6-2.6-0.6-5.9
							C648.8,217.9,649.1,215.2,649.4,215.2z"/>
					</g>
				</g>
			</g>
		</g>
	</g>
</g>
<g>
	<g>
		<g>
			<g>
				<g>
					<g>
						<g>
							<path class="st1" d="M51.9,199.1c0.2,0,0.4,10.3,0.4,23.1c0,12.7-0.2,23.1-0.4,23.1c-0.2,0-0.4-10.3-0.4-23.1
								C51.5,209.4,51.7,199.1,51.9,199.1z"/>
						</g>
					</g>
				</g>
			</g>
			<g>
				<g>
					<g>
						<g>
							<path class="st1" d="M57.9,204.1c0.2,0,0.4,7.9,0.4,17.6c0,9.7-0.2,17.6-0.4,17.6c-0.2,0-0.4-7.9-0.4-17.6
								C57.5,212,57.7,204.1,57.9,204.1z"/>
						</g>
					</g>
				</g>
			</g>
			<g>
				<g>
					<g>
						<g>
							<path class="st1" d="M64.7,209.2c0.2,0,0.4,5.7,0.4,12.7c0,7-0.2,12.7-0.4,12.7c-0.2,0-0.4-5.7-0.4-12.7
								C64.3,214.9,64.5,209.2,64.7,209.2z"/>
						</g>
					</g>
				</g>
			</g>
			<g>
				<g>
					<g>
						<g>
							<path class="st1" d="M70.6,213.5c0.2,0,0.4,3.2,0.4,7.1c0,3.9-0.2,7.1-0.4,7.1c-0.2,0-0.4-3.2-0.4-7.1
								C70.2,216.7,70.4,213.5,70.6,213.5z"/>
						</g>
					</g>
				</g>
			</g>
			<g>
				<g>
					<g>
						<g>
							<path class="st1" d="M75.8,217c0.2,0,0.4,1.7,0.4,3.9c0,2.2-0.2,3.9-0.4,3.9c-0.2,0-0.4-1.7-0.4-3.9
								C75.4,218.7,75.6,217,75.8,217z"/>
						</g>
					</g>
				</g>
			</g>
			<g>
				<g>
					<g>
						<g>
							<path class="st1" d="M81.7,212.8c0.2,0,0.4,3.2,0.4,7.1c0,3.9-0.2,7.1-0.4,7.1c-0.2,0-0.4-3.2-0.4-7.1
								C81.3,216,81.5,212.8,81.7,212.8z"/>
						</g>
					</g>
				</g>
			</g>
			<g>
				<g>
					<g>
						<g>
							<path class="st1" d="M87.2,207.1c0.2,0,0.4,6,0.4,13.4c0,7.4-0.2,13.4-0.4,13.4c-0.2,0-0.4-6-0.4-13.4
								C86.8,213,87,207.1,87.2,207.1z"/>
						</g>
					</g>
				</g>
			</g>
		</g>
		<g>
			<g>
				<g>
					<g>
						<g>
							<path class="st1" d="M16.9,209.2c0.2,0,0.4,5.7,0.4,12.7c0,7-0.2,12.7-0.4,12.7s-0.4-5.7-0.4-12.7
								C16.5,214.9,16.6,209.2,16.9,209.2z"/>
						</g>
					</g>
				</g>
			</g>
			<g>
				<g>
					<g>
						<g>
							<path class="st1" d="M22.7,213.5c0.2,0,0.4,3.2,0.4,7.1c0,3.9-0.2,7.1-0.4,7.1c-0.2,0-0.4-3.2-0.4-7.1
								C22.4,216.7,22.5,213.5,22.7,213.5z"/>
						</g>
					</g>
				</g>
			</g>
			<g>
				<g>
					<g>
						<g>
							<path class="st1" d="M27.9,217c0.2,0,0.4,1.7,0.4,3.9c0,2.2-0.2,3.9-0.4,3.9s-0.4-1.7-0.4-3.9C27.6,218.7,27.7,217,27.9,217z
								"/>
						</g>
					</g>
				</g>
			</g>
			<g>
				<g>
					<g>
						<g>
							<path class="st1" d="M33.8,210.7c0.2,0,0.4,4.1,0.4,9.2c0,5.1-0.2,9.2-0.4,9.2c-0.2,0-0.4-4.1-0.4-9.2
								C33.5,214.8,33.6,210.7,33.8,210.7z"/>
						</g>
					</g>
				</g>
			</g>
			<g>
				<g>
					<g>
						<g>
							<path class="st1" d="M39.4,207.1c0.2,0,0.4,6,0.4,13.4c0,7.4-0.2,13.4-0.4,13.4c-0.2,0-0.4-6-0.4-13.4
								C39,213,39.2,207.1,39.4,207.1z"/>
						</g>
					</g>
				</g>
			</g>
			<g>
				<g>
					<g>
						<g>
							<path class="st1" d="M46.2,204.3c0.2,0,0.4,7.6,0.4,17c0,9.4-0.2,17-0.4,17c-0.2,0-0.4-7.6-0.4-17
								C45.8,211.9,45.9,204.3,46.2,204.3z"/>
						</g>
					</g>
				</g>
			</g>
			<g>
				<g>
					<g>
						<g>
							<g>
								<path class="st1" d="M10.5,227c-0.2,0-0.4-3.2-0.4-7.1c0-3.9,0.2-7.1,0.4-7.1c0.2,0,0.4,3.2,0.4,7.1
									C10.9,223.8,10.8,227,10.5,227z"/>
							</g>
						</g>
					</g>
				</g>
				<g>
					<g>
						<g>
							<g>
								<path class="st1" d="M5.3,223.5c-0.2,0-0.4-1.7-0.4-3.9c0-2.2,0.2-3.9,0.4-3.9c0.2,0,0.4,1.7,0.4,3.9
									C5.7,221.8,5.6,223.5,5.3,223.5z"/>
							</g>
						</g>
					</g>
				</g>
			</g>
		</g>
	</g>
	<g>
		<g>
			<g>
				<g>
					<g>
						<path class="st1" d="M92.7,212.8c0.2,0,0.4,3.2,0.4,7.1c0,3.9-0.2,7.1-0.4,7.1c-0.2,0-0.4-3.2-0.4-7.1
							C92.3,216,92.4,212.8,92.7,212.8z"/>
					</g>
				</g>
			</g>
		</g>
		<g>
			<g>
				<g>
					<g>
						<path class="st1" d="M97.9,216.3c0.2,0,0.4,1.7,0.4,3.9c0,2.2-0.2,3.9-0.4,3.9c-0.2,0-0.4-1.7-0.4-3.9
							C97.5,218,97.6,216.3,97.9,216.3z"/>
					</g>
				</g>
			</g>
		</g>
	</g>
</g>
<g>
	<g>
		<g>
			<g>
				<g>
					<g>
						<path class="st2" d="M52.5,414.5c4.7-2.4,10.1-2.7,15.3-1.9c2.8,0.5,5.7,1.3,7.6,3.4c1.9,2.1,2.2,5.8,0.1,7.6
							c-1.3,1.1-3.1,1.2-4.8,1.2c-4,0-8.5-0.8-11.8,1.7c-1.8,1.4-3.1,3.7-5.3,4.4c-2.2,0.7-4.6-0.6-5.7-2.6
							c-1.1-1.9-1.2-4.4-0.6-6.6C47.3,421.7,47.8,416.9,52.5,414.5z"/>
					</g>
				</g>
			</g>
		</g>
		<g>
			<g>
				<g>
					<g>
						<path class="st2" d="M41.8,393.8c2.8,4.1,8.4,2.7,11,0.2c2.6-2.5,3.7-6.1,4.6-9.5c2.3-7.8,4.5-16.1,2.9-24.1
							c-0.5-2.4-1.4-4.8-3.1-6.5c-1.7-1.8-4.3-2.8-6.6-2.2c-2.8,0.7-4.5,3.5-5.8,6.1c-3.7,7.6-5.6,16.1-5.7,24.6
							C39.1,386.4,39.6,390.6,41.8,393.8"/>
					</g>
				</g>
			</g>
		</g>
		<g>
			<g>
				<g>
					<g>
						<path class="st2" d="M34,399.7c3.1-3.7,3.7-9,2.3-13.6c-1.4-4.6-4.5-8.5-8.1-11.7c-4.2-3.7-9.1-6.7-14.5-8.5
							c-2.1-0.7-4.3-1.3-6.5-1.1c-2.2,0.2-4.4,1.3-5.5,3.3c-1.5,2.9-0.1,6.4,1.5,9.3c2.8,5.1,6,9.9,9.5,14.5
							c2.8,3.7,6.1,7.3,10.4,8.9c4.3,1.7,8.8,1.5,11.1-1.5"/>
					</g>
				</g>
			</g>
		</g>
		<g>
			<g>
				<g>
					<g>
						<g>
							<path class="st1" d="M41.6,455.2c0.1,0,0.1-0.7,0.3-1.8c0.1-1.3,0.3-3,0.5-5c0.2-2.1,0.5-4.7,1.1-7.4
								c0.6-2.7,1.5-5.7,2.7-8.7c1.2-3,2.7-5.7,4.5-7.9c1.7-2.2,3.7-3.8,5.6-4.7c1.9-0.9,3.6-1.3,4.7-1.5c1.2-0.1,1.8-0.2,1.8-0.3
								c0-0.1-0.7-0.1-1.9,0c-1.2,0.1-3,0.4-5,1.3c-2,0.9-4.1,2.5-5.9,4.7c-1.8,2.2-3.4,5-4.6,8.1c-1.2,3.1-2.1,6.1-2.7,8.9
								c-0.6,2.8-0.8,5.4-1,7.5c-0.2,2.1-0.2,3.9-0.3,5.1C41.6,454.6,41.6,455.2,41.6,455.2z"/>
						</g>
					</g>
				</g>
			</g>
		</g>
		<g>
			<g>
				<g>
					<g>
						<g>
							<path class="st1" d="M42,451.3c0,0,0-0.3,0-0.9c0-0.6,0-1.5,0-2.5c0-2.1,0-5.2,0.1-9c0.2-7.6,0.8-15.8,2.1-27.3
								c1.2-10.9,2.8-23.5,4.5-31.7c0.4-1.9,0.7-3.5,1.1-5c0.3-1.5,0.6-2.7,0.9-3.8c0.2-1,0.4-1.8,0.6-2.4c0.1-0.5,0.2-0.8,0.2-0.8
								c0,0-0.1,0.3-0.3,0.8c-0.2,0.6-0.4,1.4-0.7,2.4c-0.3,1-0.6,2.3-1,3.8c-0.4,1.5-0.8,3.1-1.2,5c-1.7,7.4-3.5,17.8-4.7,29.4
								c-1.3,11.6-1.8,22.1-1.9,29.7c0,3.8,0,6.9,0.1,9c0.1,1,0.1,1.8,0.1,2.5C41.9,451.1,42,451.3,42,451.3z"/>
						</g>
					</g>
				</g>
			</g>
		</g>
		<g>
			<g>
				<g>
					<g>
						<g>
							<path class="st1" d="M42,431c0.1,0,0-0.9,0-2.6c-0.1-1.6-0.3-4-0.8-6.9c-0.5-2.9-1.2-6.4-2.3-10.1c-0.5-1.7-1.6-5.8-4.2-12
								c-3.5-8.3-8.3-15.1-12.4-19.3c-1-1.1-2.1-1.9-2.9-2.7c-0.4-0.4-0.8-0.8-1.2-1.1c-0.4-0.3-0.8-0.5-1.1-0.8
								c-1.4-0.9-2.1-1.4-2.2-1.4c-0.1,0.2,3.1,2,7.1,6.3c4,4.3,8.6,11,12.1,19.3c1.9,4.5,3.3,8.5,4.3,11.9c1.1,3.7,1.8,7.1,2.4,10
								c0.5,2.9,0.8,5.2,1,6.9C41.9,430.1,42,431,42,431z"/>
						</g>
					</g>
				</g>
			</g>
		</g>
	</g>
	<g>
		<g>
			<g>
				<g>
					<polygon class="st1" points="22.4,466.9 24.4,494.8 60.3,494.8 62.3,466.9 					"/>
				</g>
			</g>
		</g>
	</g>
	<g>
		<g>
			<g>
				<g>
					<rect x="18.9" y="455.9" class="st1" width="47.6" height="11"/>
				</g>
			</g>
		</g>
	</g>
	<g>
		<g>
			<g>
				<g>
					<polygon class="st2" points="18.9,493.7 18.9,496.7 21.2,496.7 65.8,496.7 65.8,493.7 					"/>
				</g>
			</g>
		</g>
	</g>
	<g>
		<g>
			<g>
				<g>
					<polygon class="st1" points="23.4,502.1 21.2,496.7 64.1,496.7 61.5,502.1 					"/>
				</g>
			</g>
		</g>
	</g>
	<g>
		<g>
			<g>
				<g>
					<g>
						<path class="st3" d="M61.7,476c0,0,0,0.1-0.2,0.3c-0.1,0.2-0.3,0.4-0.5,0.7c-0.5,0.7-1.2,1.5-2.1,2.7l-0.1,0.1l-0.1-0.1
							c-1.3-1.8-3.1-4.2-5.1-7.1h0.3c-1.5,2.2-3.2,4.6-5,7.1l-0.2,0.2l-0.2-0.2c-1.9-2.2-3.9-4.6-6-7.1l0.3,0
							c-0.1,0.1-0.2,0.3-0.3,0.4c-1.9,2.3-3.7,4.6-5.4,6.7l-0.2,0.2l-0.2-0.2c-1.8-2.6-3.5-5-5.1-7.1l0.3,0
							c-2.5,2.8-4.6,5.2-6.2,7.1l-0.1,0.1l-0.1-0.1c-0.8-1.4-1.5-2.5-1.9-3.3c-0.2-0.4-0.4-0.6-0.5-0.9c-0.1-0.2-0.2-0.3-0.2-0.3
							c0,0,0.1,0.1,0.2,0.3c0.1,0.2,0.3,0.5,0.6,0.8c0.5,0.8,1.2,1.9,2,3.2l-0.2,0c1.6-1.9,3.7-4.3,6.1-7.2l0.2-0.2l0.1,0.2
							c1.5,2.2,3.3,4.6,5.1,7.1l-0.3,0c1.7-2.1,3.5-4.4,5.3-6.7c0.1-0.1,0.2-0.3,0.3-0.4l0.2-0.2l0.2,0.2c2.1,2.5,4.1,4.9,6,7.1
							l-0.3,0c1.8-2.6,3.6-5,5.1-7.1l0.1-0.2l0.1,0.2c2,2.9,3.7,5.3,5,7.2l-0.2,0c0.9-1.1,1.6-2,2.2-2.6c0.2-0.3,0.4-0.5,0.6-0.7
							C61.6,476.1,61.6,476,61.7,476z"/>
					</g>
				</g>
			</g>
		</g>
	</g>
	<g>
		<g>
			<g>
				<g>
					<g>
						<path class="st3" d="M62.8,466.7c0,0.1-9,0.2-20.1,0.2c-11.1,0-20.1-0.1-20.1-0.2c0-0.1,9-0.2,20.1-0.2
							C53.8,466.5,62.8,466.6,62.8,466.7z"/>
					</g>
				</g>
			</g>
		</g>
	</g>
	<g>
		<g>
			<g>
				<g>
					<g>
						<path class="st3" d="M64.6,497c0,0.1-9.8,0.2-21.8,0.2c-12,0-21.8-0.1-21.8-0.2c0-0.1,9.8-0.2,21.8-0.2
							C54.9,496.8,64.6,496.9,64.6,497z"/>
					</g>
				</g>
			</g>
		</g>
	</g>
</g>
<g>
	<g>
		<g>
			<g>
				<g>
					<g>
						<g>
							<g>
								<g>
									<g>
										<path class="st4" d="M70.1,192.8l-6.9-12.2c3.1-5,4.8-10.8,4.8-17c0-18-14.6-32.5-32.5-32.5C17.6,131.2,3,145.7,3,163.7
											c0,17.9,14.6,32.5,32.5,32.5c7.5,0,14.4-2.5,19.9-6.8l0,0L70.1,192.8z"/>
									</g>
								</g>
							</g>
						</g>
					</g>
					<g>
						<g>
							<g>
								<g>
									<g>
										<g>
											<path class="st5" d="M70.1,192.8c-0.7-0.2-5.4-1.2-14.7-3.4l-0.2,0l0.1-0.1l0,0l0.1,0.1c-1.9,1.4-4.1,2.9-6.7,4
												c-2.6,1.2-5.6,2.1-8.9,2.5c-1.7,0.2-3.4,0.3-5.1,0.3c-0.9-0.1-1.8-0.1-2.7-0.1c-0.9-0.1-1.8-0.3-2.7-0.4
												c-3.7-0.7-7.4-2.1-11-4.3c-3.5-2.2-6.8-5.1-9.4-8.7c-2.6-3.6-4.6-7.9-5.5-12.6c-0.9-4.7-0.8-9.6,0.4-14.5
												c1.2-4.8,3.5-9.5,7-13.4l1.3-1.5c0.4-0.5,1-0.9,1.4-1.3c0.5-0.4,0.9-0.9,1.5-1.3l1.6-1.2c0.5-0.4,1.1-0.7,1.6-1.1
												c0.6-0.3,1.1-0.7,1.6-1c0.6-0.3,1.2-0.6,1.7-0.8c0.6-0.3,1.1-0.6,1.7-0.8c4.7-1.9,9.8-2.6,14.6-2.2
												c4.8,0.3,9.4,1.7,13.4,4c4,2.2,7.3,5.2,9.9,8.4c2.6,3.3,4.4,6.9,5.5,10.5c1.1,3.6,1.4,7.2,1.4,10.6
												c-0.1,3.3-0.7,6.4-1.6,9.1c-0.9,2.7-2.1,5-3.3,7l0-0.1C67.6,188.4,69.8,192.2,70.1,192.8c-0.3-0.6-2.5-4.4-7-12.1l0,0
												l0,0c1.2-2,2.3-4.3,3.2-7c0.9-2.7,1.5-5.7,1.5-9.1c0-3.3-0.3-6.9-1.4-10.5c-1.1-3.6-2.9-7.2-5.5-10.4
												c-2.6-3.3-5.9-6.2-9.8-8.3c-3.9-2.2-8.5-3.6-13.2-3.9c-4.8-0.3-9.7,0.4-14.4,2.2c-0.6,0.2-1.1,0.5-1.7,0.8
												c-0.6,0.3-1.1,0.6-1.7,0.8c-0.5,0.3-1.1,0.7-1.6,1c-0.5,0.3-1.1,0.7-1.6,1.1l-1.5,1.2c-0.5,0.4-1,0.8-1.5,1.3
												c-0.5,0.4-1,0.8-1.4,1.3l-1.3,1.4c-3.4,3.8-5.7,8.5-6.9,13.2c-1.2,4.8-1.3,9.7-0.4,14.3c0.9,4.6,2.9,8.8,5.4,12.4
												c2.6,3.6,5.8,6.5,9.2,8.7c3.5,2.2,7.2,3.6,10.8,4.3c0.9,0.1,1.8,0.3,2.7,0.4c0.9,0.1,1.8,0.1,2.7,0.2
												c1.8,0.1,3.5,0,5.1-0.2c3.3-0.4,6.3-1.4,8.9-2.5c2.6-1.2,4.8-2.6,6.7-4l0.6-0.5l-0.5,0.6l0,0l-0.1-0.2
												C64.7,191.5,69.4,192.7,70.1,192.8z"/>
										</g>
									</g>
								</g>
							</g>
						</g>
					</g>
				</g>
			</g>
		</g>
	</g>
	<g>
		<g>
			<g>
				<g>
					<g>
						<g>
							<g>
								<g>
									<path class="st5" d="M26.3,163.7c0,1.8-1.5,3.3-3.3,3.3c-1.8,0-3.3-1.5-3.3-3.3c0-1.8,1.5-3.3,3.3-3.3
										C24.9,160.4,26.3,161.8,26.3,163.7z"/>
								</g>
							</g>
						</g>
					</g>
				</g>
			</g>
		</g>
		<g>
			<g>
				<g>
					<g>
						<g>
							<g>
								<g>
									<path class="st5" d="M39.6,163.7c0,1.8-1.5,3.3-3.3,3.3c-1.8,0-3.3-1.5-3.3-3.3c0-1.8,1.5-3.3,3.3-3.3
										C38.1,160.4,39.6,161.8,39.6,163.7z"/>
								</g>
							</g>
						</g>
					</g>
				</g>
			</g>
		</g>
		<g>
			<g>
				<g>
					<g>
						<g>
							<g>
								<g>
									<path class="st5" d="M52.7,162c0.9,1.6,0.4,3.6-1.2,4.5c-1.6,0.9-3.6,0.4-4.5-1.2c-0.9-1.6-0.4-3.6,1.2-4.5
										C49.8,159.9,51.8,160.4,52.7,162z"/>
								</g>
							</g>
						</g>
					</g>
				</g>
			</g>
		</g>
	</g>
</g>
<g>
	<g>
		<path class="st6" d="M210.2,76.7c0,4.9-0.2,9.9-0.8,14.9h-19.1c-6.6,0-13,1.3-18.7,3.7c-0.2,0.1-0.3,0.1-0.5,0.2
			c-7.5,3.2-14,8.3-19,14.6c-0.1,0.2-0.2,0.3-0.3,0.4c-4.1,5.3-7.1,11.4-8.8,18c-8.5-4.3-16.1-10.4-22.2-17.6
			c-2.3-2.7-4.4-5.5-5.4-8.8c-1-3.3-0.7-7.1,1.5-9.8c3.4-4.1,10-4.3,15.2-2.3c2.7,1,5.3,2.6,8.1,3.1s6.3-0.1,7.7-2.6
			c1.4-2.4,0.2-5.6-2-7.5c-2.2-1.9-5-2.8-7.8-3.8c-7.6-2.8-14.7-6.9-20.9-12c-2.6-2.1-5.2-5.2-5-8.2c0-0.6,0.1-1.2,0.4-1.8
			c1.2-2.6,4.4-3.7,7.3-4c2.9-0.3,6,0.1,8.8-0.7c2.5-0.7,4.9-3,4.2-5.4c-0.4-1.3-1.7-2.2-2.8-3c-6.4-4.5-12.2-9.9-17-16
			c-3.2-4.1-6.2-9.2-4.7-14.1c1.5-4.9,7.3-7.9,12.6-7.5c5.4,0.4,10.1,3.6,13.5,7.5c3.4,4,5.7,8.7,8,13.3c2.3,4.6,4.8,9.2,8.6,12.9
			c1.1,1,2.6,2.1,4.1,1.7c1.5-0.4,2.3-2,2.4-3.4c0.1-1.4-0.1-2.9,0.2-4.4c0.8-3.4,5.3-5.3,8.8-4.2h0c3.5,1,6,4.2,7.1,7.5
			c1.1,3.4,1,7,0.9,10.5c-0.2,6.6-0.4,13.1-0.6,19.7c-0.1,3.5,0.2,7.8,3.4,9.5c2.3,1.3,5.3,0.6,7.7-0.5c3.7-1.7,6.9-4.4,9-7.7
			c1.6-2.5,2.9-5.5,5.8-6.7c1.8-0.7,3.7-0.5,5.4,0.3c0,0,0.1,0,0.1,0.1c1.6,0.8,2.9,2.1,3.8,3.6C210.6,69.4,210.1,73.1,210.2,76.7z"
			/>
	</g>
	<g>
		<g>
			<path class="st1" d="M167.7,86c1.3,3.1,2.6,6.2,3.8,9.3c-0.2,0.1-0.3,0.1-0.5,0.2c-1.2-3.1-2.5-6.2-3.8-9.3
				c-1.3-3-2.5-5.9-3.7-8.8c-1.2-2.9-2.5-5.8-3.8-8.5c-0.1-0.1-0.1-0.3-0.2-0.4c0,0,0-0.1-0.1-0.2c-2.6-5.3-5.6-10.1-8.6-14.7
				c-3.1-4.7-6.2-9.1-9.1-13.2c-2.9-4.1-5.7-7.8-8.4-11.2c-5.4-6.7-10.4-11.6-13.9-14.8c-1.8-1.6-3.2-2.9-4.2-3.7
				c-0.5-0.4-0.8-0.7-1.1-1c-0.2-0.2-0.3-0.3-0.3-0.3c0.1,0,0.2,0.1,0.4,0.3c0.3,0.2,0.7,0.5,1.1,0.9c1,0.8,2.4,2,4.2,3.6
				c3.6,3.2,8.7,8.1,14.1,14.7c2.7,3.3,5.6,7.1,8.5,11.1c2.9,4.1,6,8.5,9.1,13.2c3,4.6,6.1,9.6,8.8,15c0,0,0,0.1,0.1,0.1
				c0,0.1,0.1,0.1,0.1,0.2c1.4,2.7,2.6,5.6,3.9,8.5C165.2,80.1,166.5,83,167.7,86z"/>
		</g>
	</g>
	<g>
		<g>
			<path class="st1" d="M160,68.6c0,0,0.2-0.5,0.4-1.5c0.2-1,0.5-2.4,0.8-4.1c0.6-3.5,1.3-8.3,2-13.7c0.7-5.3,1.5-10.2,2.2-13.6
				c0.3-1.7,0.6-3.1,0.8-4.1c0.2-1,0.3-1.5,0.3-1.5c0,0-0.2,0.5-0.5,1.5c-0.3,1-0.6,2.3-1,4.1c-0.8,3.5-1.6,8.3-2.3,13.6
				c-0.7,5.3-1.4,10.1-1.8,13.7c-0.2,1.7-0.4,3.1-0.6,4.1C160,68.1,160,68.6,160,68.6z"/>
		</g>
	</g>
	<g>
		<g>
			<path class="st1" d="M112.1,59.1c0,0,0.2,0,0.5,0.1c0.4,0,0.9,0.1,1.4,0.1c1.2,0.1,3,0.3,5.2,0.6c4.4,0.5,10.4,1.5,17.1,2.8
				c6.6,1.3,12.6,2.8,16.8,4c2.1,0.6,3.8,1.1,5,1.4c0.5,0.2,1,0.3,1.4,0.4c0.3,0.1,0.5,0.1,0.5,0.1c0,0-0.1-0.1-0.5-0.2
				c-0.4-0.1-0.8-0.3-1.3-0.5c-1.2-0.4-2.9-1-5-1.6c-4.2-1.3-10.2-2.8-16.8-4.1c-6.6-1.3-12.7-2.2-17.1-2.7c-2.2-0.2-4-0.4-5.2-0.4
				c-0.6,0-1,0-1.4,0C112.3,59.1,112.1,59.1,112.1,59.1z"/>
		</g>
	</g>
	<g>
		<g>
			<path class="st1" d="M205.4,62.2c0,0-0.1,0.2-0.2,0.6c0,0,0,0,0,0c-0.2,0.4-0.5,1-0.8,1.7c-0.7,1.5-1.6,3.6-2.8,6.1
				c-2.3,5.2-5.4,12.4-8.8,20.3c-0.1,0.2-0.2,0.5-0.3,0.7h-0.6c0.1-0.3,0.3-0.6,0.4-0.9c3.4-8,6.5-15.2,9-20.3c1.2-2.6,2.2-4.6,3-6
				c0.3-0.7,0.6-1.2,0.9-1.6c0,0,0,0,0,0C205.2,62.4,205.3,62.2,205.4,62.2z"/>
		</g>
	</g>
	<g>
		<g>
			<path class="st1" d="M148,108.7c1.3,0.5,2.7,0.9,4,1.4c-0.1,0.2-0.2,0.3-0.3,0.4c-1.3-0.4-2.5-0.9-3.8-1.3
				c-8.7-3-16.6-5.7-22.3-7.6c-2.8-0.9-5.1-1.7-6.8-2.2c-0.8-0.3-1.4-0.5-1.8-0.6c-0.4-0.1-0.6-0.2-0.6-0.3c0,0,0.2,0,0.7,0.1
				c0.5,0.1,1.1,0.3,1.9,0.5c1.6,0.5,4,1.2,6.9,2.1C131.4,103,139.3,105.7,148,108.7z"/>
		</g>
	</g>
</g>
<path d="M502,503.4H190.2c-28.3,0-51.3-23-51.3-51.3V140.3c0-28.3,23-51.3,51.3-51.3H502c28.3,0,51.3,23,51.3,51.3v311.8
	C553.3,480.4,530.3,503.4,502,503.4z M190.2,94.1c-25.5,0-46.3,20.8-46.3,46.3v311.8c0,25.5,20.8,46.3,46.3,46.3H502
	c25.5,0,46.3-20.8,46.3-46.3V140.3c0-25.5-20.8-46.3-46.3-46.3H190.2z"/>
<g>
	<g>
		<g>
			<g>
				<g>
					<g>
						<g>
							<path class="st7" d="M59.2,458.6l-15.7,20.7l-7.7,19.9c-0.6,1.4-2.2,2.1-3.6,1.4l0,0c-0.8-0.4-1.3-1.1-1.5-1.9
								c-1-5.4-4.5-25.3-3.2-26.8c1.4-1.7,15.1-22.9,15.1-22.9L59.2,458.6z"/>
						</g>
					</g>
				</g>
			</g>
			<g class="st8">
				<g>
					<g>
						<g>
							<path class="st9" d="M32.1,500.7l-3.7-30.1l-0.6,0.9c-0.6,0.8-0.8,1.7-0.8,2.7c0.2,2.5,0.9,9.5,3.5,24.6
								C30.8,499.6,31.3,500.3,32.1,500.7L32.1,500.7z"/>
						</g>
					</g>
				</g>
			</g>
			<g class="st8">
				<g>
					<g>
						<g>
							<g>
								<path class="st9" d="M37.7,466.9c0.3,0.7-0.1,1.7-0.9,2c-0.7,0.3-1.7-0.1-2-0.9c-0.3-0.7,0.2-1.9,0.9-2.1
									c0.8-0.2,1.8,0.3,1.9,1.1"/>
							</g>
						</g>
					</g>
				</g>
			</g>
			<g>
				<g>
					<g>
						<g>
							<g>
								<path class="st5" d="M34,488c0.1,0.1,1.3-0.6,3-0.3c1.7,0.3,2.6,1.4,2.8,1.3c0.1,0-0.1-0.4-0.5-0.8c-0.4-0.4-1.2-0.9-2.1-1
									c-0.9-0.2-1.8,0-2.3,0.3C34.2,487.6,34,487.9,34,488z"/>
							</g>
						</g>
					</g>
				</g>
			</g>
			<g>
				<g>
					<g>
						<g>
							<g>
								<path class="st5" d="M33.5,491.9c0,0.2,1.2,0,2.5,0.4c1.3,0.4,2.1,1.3,2.2,1.2c0.1-0.1-0.6-1.2-2.1-1.8
									C34.7,491.3,33.4,491.7,33.5,491.9z"/>
							</g>
						</g>
					</g>
				</g>
			</g>
			<g>
				<g>
					<g>
						<g>
							<g>
								<path class="st5" d="M33.8,482.4c0,0.2,1.8-0.1,3.9,0.4c2.1,0.5,3.5,1.7,3.6,1.5c0.1-0.1-1.2-1.5-3.5-2.1
									C35.6,481.6,33.8,482.2,33.8,482.4z"/>
							</g>
						</g>
					</g>
				</g>
			</g>
			<g>
				<g>
					<g>
						<g>
							<g>
								<path class="st5" d="M38.1,475.7c0,0.2,1.5,0.5,3,1.6c1.6,1,2.5,2.3,2.6,2.2c0.1-0.1-0.6-1.6-2.3-2.7
									C39.8,475.6,38.1,475.5,38.1,475.7z"/>
							</g>
						</g>
					</g>
				</g>
			</g>
			<g>
				<g>
					<g>
						<g>
							<g>
								<path class="st5" d="M42.6,469.5c0,0.2,1.7,0.3,3.2,1.5c1.6,1.2,2.1,2.8,2.3,2.7c0.1,0,0-0.4-0.3-1.1
									c-0.3-0.6-0.8-1.4-1.7-2.1c-0.8-0.7-1.8-1-2.4-1.1C43,469.3,42.6,469.4,42.6,469.5z"/>
							</g>
						</g>
					</g>
				</g>
			</g>
			<g>
				<g>
					<g>
						<g>
							<g>
								<path class="st5" d="M46.6,469.8c0,0,0.3-0.2,0.6-0.8c0.3-0.5,0.7-1.4,0.9-2.5c0.1-0.6,0.2-1.2-0.2-1.9
									c-0.2-0.4-0.7-0.6-1.1-0.5c-0.4,0.1-0.8,0.4-1,0.7c-0.9,1.4-0.7,3.5,0.6,4.8c1.4,1.3,3.4,1.4,4.8,0.7c0.3-0.2,0.7-0.5,0.8-1
									c0.1-0.5-0.2-0.9-0.6-1.1c-0.7-0.4-1.3-0.3-1.9-0.3c-1.1,0.1-2,0.3-2.6,0.6c-0.6,0.3-0.9,0.5-0.8,0.5c0,0.1,1.3-0.6,3.5-0.7
									c0.5,0,1.2,0,1.7,0.3c0.2,0.1,0.4,0.4,0.3,0.6c0,0.2-0.3,0.5-0.6,0.6c-1.2,0.6-3,0.5-4.2-0.6c-1.2-1.1-1.3-2.9-0.6-4
									c0.2-0.3,0.4-0.5,0.7-0.5c0.2-0.1,0.5,0.1,0.6,0.3c0.3,0.5,0.2,1.1,0.2,1.6C47.4,468.7,46.5,469.8,46.6,469.8z"/>
							</g>
						</g>
					</g>
				</g>
			</g>
		</g>
		<g>
			<g>
				<g>
					<g>
						<g>
							<g>
								<g>
									<g>
										<path class="st7" d="M75.6,469.6l1.6,21.1c0,0-21,7.2-21,11.1l41.1-0.1l-1.1-33L75.6,469.6z"/>
									</g>
								</g>
							</g>
						</g>
					</g>
				</g>
				<g class="st8">
					<g>
						<g>
							<g>
								<g>
									<g>
										<g>
											<path class="st9" d="M89.8,488.5c0.8,0.2,1.4,1.1,1.2,1.9c-0.2,0.8-1,1.4-1.8,1.2c-0.8-0.2-1.5-1.2-1.3-2
												c0.2-0.8,1.3-1.4,2.1-1.1"/>
										</g>
									</g>
								</g>
							</g>
						</g>
					</g>
				</g>
				<g class="st8">
					<g>
						<g>
							<g>
								<g>
									<g>
										<path class="st9" d="M97.2,501.7l-0.1-3.3l-39.7,1.5c0,0-1.3,0.6-1.5,2.2L97.2,501.7z"/>
									</g>
								</g>
							</g>
						</g>
					</g>
				</g>
				<g>
					<g>
						<g>
							<g>
								<g>
									<g>
										<g>
											<path class="st5" d="M76.5,490.6c0,0.2,1,0.3,2,0.9c1,0.6,1.6,1.4,1.8,1.3c0.2,0-0.2-1.2-1.4-1.9
												C77.6,490.1,76.4,490.4,76.5,490.6z"/>
										</g>
									</g>
								</g>
							</g>
						</g>
					</g>
				</g>
				<g>
					<g>
						<g>
							<g>
								<g>
									<g>
										<g>
											<path class="st5" d="M72.3,492.5c0,0.2,0.8,0.5,1.6,1.3c0.7,0.8,0.9,1.7,1.1,1.7c0.2,0,0.3-1.2-0.6-2.2
												C73.4,492.3,72.3,492.3,72.3,492.5z"/>
										</g>
									</g>
								</g>
							</g>
						</g>
					</g>
				</g>
				<g>
					<g>
						<g>
							<g>
								<g>
									<g>
										<g>
											<path class="st5" d="M70,497.8c0.2,0,0.4-1-0.1-2.1c-0.6-1.1-1.5-1.5-1.6-1.3c-0.1,0.2,0.5,0.7,1,1.6
												C69.7,496.9,69.8,497.7,70,497.8z"/>
										</g>
									</g>
								</g>
							</g>
						</g>
					</g>
				</g>
				<g>
					<g>
						<g>
							<g>
								<g>
									<g>
										<g>
											<path class="st5" d="M76.7,485.7c0.1,0.2,1-0.1,2.1-0.1c1.1,0,2,0.4,2.1,0.2c0.1-0.1-0.8-0.9-2.1-0.9
												C77.5,484.9,76.6,485.5,76.7,485.7z"/>
										</g>
									</g>
								</g>
							</g>
						</g>
					</g>
				</g>
			</g>
			<g class="st10">
				<g>
					<g>
						<g>
							<g>
								<g>
									<polygon points="75.9,473.8 76.2,477.6 96.3,476.6 96.2,473.2 									"/>
								</g>
							</g>
						</g>
					</g>
				</g>
			</g>
			<g>
				<g>
					<g>
						<g>
							<g>
								<g>
									<g>
										<path class="st5" d="M76.4,481.4c0,0.1,0.8,0.2,2.1-0.1c0.6-0.1,1.4-0.4,2.1-0.7c0.4-0.2,0.8-0.4,1.2-0.7
											c0.2-0.1,0.4-0.3,0.6-0.5c0.2-0.2,0.3-0.8,0-1.1c-0.2-0.3-0.6-0.4-0.9-0.4c-0.3,0-0.5,0.1-0.8,0.1
											c-0.5,0.1-0.9,0.3-1.3,0.5c-0.8,0.4-1.4,0.9-1.8,1.3c-0.9,0.9-1.2,1.7-1.1,1.7c0.1,0.1,0.5-0.6,1.5-1.4
											c0.5-0.4,1.1-0.8,1.8-1.1c0.4-0.2,0.8-0.3,1.2-0.4c0.4-0.1,0.8-0.1,0.9,0c0,0.1,0,0.1,0,0.2c-0.1,0.1-0.3,0.2-0.4,0.4
											c-0.4,0.3-0.7,0.5-1.1,0.7c-0.7,0.4-1.4,0.7-2,0.8C77.2,481.2,76.4,481.3,76.4,481.4z"/>
									</g>
								</g>
							</g>
						</g>
					</g>
				</g>
			</g>
			<g>
				<g>
					<g>
						<g>
							<g>
								<g>
									<g>
										<path class="st5" d="M76.7,481.7c0.1,0,0.4-0.7,0.5-2c0-0.6-0.1-1.4-0.4-2.2c-0.1-0.4-0.3-0.8-0.6-1.2
											c-0.3-0.4-0.6-0.9-1.4-1c-0.4,0-0.7,0.3-0.8,0.6c-0.1,0.3-0.1,0.5-0.2,0.8c-0.1,0.5,0,1,0.1,1.4c0.2,0.9,0.6,1.6,1,2.1
											c0.8,1,1.7,1.2,1.7,1.2c0.1-0.1-0.7-0.5-1.3-1.5c-0.3-0.5-0.6-1.1-0.7-1.9c-0.1-0.4-0.1-0.8,0-1.2c0-0.4,0.2-0.8,0.4-0.8
											c0.2,0,0.6,0.3,0.7,0.6c0.2,0.4,0.4,0.7,0.6,1.1c0.3,0.7,0.4,1.4,0.5,2C76.8,480.9,76.6,481.7,76.7,481.7z"/>
									</g>
								</g>
							</g>
						</g>
					</g>
				</g>
			</g>
		</g>
		<g>
			<g>
				<g>
					<g>
						<path class="st5" d="M62.3,289c0,0-9.7,18.5-9.7,33.6c0,3.2,18.3,153.3,18.3,153.3l27.8-2.3L86.5,335.4l4.4-29.6L62.3,289z"/>
					</g>
				</g>
			</g>
			<g>
				<g>
					<g>
						<path class="st5" d="M124.1,305.4c0,0-6.5,54.2-9.5,75.1c-3.2,21.9-9.5,26-9.5,26l-50.2,64.2L35.3,453l44-64.2
							c0,0,12.1-85.1,11.6-83C90.5,307.9,124.1,305.4,124.1,305.4z"/>
					</g>
				</g>
			</g>
			<g>
				<g>
					<g>
						<g>
							<path class="st11" d="M104.1,407.4c0,0-0.1,0.2-0.5,0.7c-0.4,0.5-0.8,1.1-1.4,1.8c-1.3,1.7-3.1,4-5.3,6.8
								c-4.4,5.8-10.5,13.8-17.2,22.5c-6.7,8.8-12.8,16.8-17.3,22.4c-2.3,2.8-4.1,5.1-5.4,6.7c-0.6,0.7-1.1,1.3-1.5,1.8
								c-0.4,0.4-0.5,0.6-0.6,0.6c0,0,0.1-0.2,0.5-0.7c0.4-0.5,0.8-1.1,1.4-1.8c1.3-1.7,3.1-4,5.3-6.8c4.4-5.8,10.5-13.8,17.2-22.5
								c6.7-8.8,12.8-16.8,17.3-22.4c2.3-2.8,4.1-5.1,5.4-6.7c0.6-0.7,1.1-1.3,1.5-1.8C103.9,407.6,104.1,407.4,104.1,407.4z"/>
						</g>
					</g>
				</g>
			</g>
		</g>
		<g>
			<g>
				<g>
					<g>
						<path class="st7" d="M75.8,197.4c0,0-9.7,5.8-12.6,11c-2.9,5.2-18.4,43-17.8,49.2c0.6,6.1,15.2,10,15.2,10l15.2-19.7l-9.1-6.1
							l9.1-11.3V197.4z"/>
					</g>
				</g>
			</g>
			<g>
				<g>
					<g>
						<path class="st7" d="M91.5,192.4l-15.7,5c0,0-7.1,67.6-10.7,77.4c-3.6,9.7-4.5,21-4.5,21s2,18.9,24,21.5
							c22,2.6,39.5-10.5,39.5-10.5s13.2-33.4,17.1-61.9c3.9-28.5,1.2-44.7,1.2-44.7l-24.1-8.7L91.5,192.4z"/>
					</g>
				</g>
			</g>
			<g>
				<g>
					<g>
						<path class="st7" d="M137.9,202.2c-0.7,0.7-10.4,7.1-13.6,18.1c-3.2,11-6.8,22.3-6.8,22.3l-12.6,1.6l7.1,29.1
							c0,0,15.2-1.6,23.6-15.5c8.4-13.9,13.6-31.1,13.6-31.1S148.2,191.6,137.9,202.2z"/>
					</g>
				</g>
			</g>
			<g>
				<g>
					<g>
						<path class="st12" d="M60.6,267.6c0,0,35.3,7,48.1-8.1l-3.7-12.9c0,0-23.3,5.5-30.6,3.1L60.6,267.6z"/>
					</g>
				</g>
			</g>
			<g>
				<g>
					<g>
						<path class="st12" d="M109.2,243.8c0,0,5.4-12,6.1-12.1c0.7-0.2,11.1-3.8,11.1-3.8s0.6,1.4,0,2.6l3.7,0.5c0,0-0.6,2.3-1.8,2.6
							l1.3,1.2c0,0-1.1,1.5-2.5,2.1c-1.4,0.6-2.4,0-2.4,0s0.5,0.9-1.7,2.2c-2.1,1.3-5.8,3.3-5.8,3.3L109.2,243.8z"/>
					</g>
				</g>
				<g>
					<g>
						<path class="st13" d="M109.2,243.8L109.2,243.8c0.2-0.5,5.4-12,6.1-12.2c0.7-0.2,10.9-3.8,11.1-3.8l0,0l0,0c0,0,0.5,1.4,0,2.6
							l3.7,0.5l0,0c0,0.1-0.6,2.3-1.8,2.6l1.3,1.2l0,0c0,0-1.1,1.5-2.5,2.1c-1.2,0.5-2.2,0.2-2.4,0c0.1,0.2,0.1,1-1.7,2.2
							c-2.1,1.3-5.7,3.3-5.8,3.3l0,0L109.2,243.8z M126.4,227.9c-0.6,0.2-10.3,3.6-11,3.8c-0.5,0.1-4.2,7.9-6,12.1l7.9-1.4
							c0.1-0.1,3.7-2,5.8-3.3c2.1-1.3,1.7-2.2,1.6-2.2l0-0.1l0.1,0.1c0,0,1,0.6,2.4,0c1.3-0.6,2.4-1.9,2.5-2.1l-1.4-1.2l0.1,0
							c1.2-0.3,1.7-2.3,1.8-2.6l-3.7-0.5l0,0C126.8,229.3,126.4,228.1,126.4,227.9z"/>
					</g>
				</g>
			</g>
			<g>
				<g>
					<g>
						<g>
							<path class="st13" d="M126,230.5c0.1,0.1-3,1.3-6.8,2.6c-0.9,0.3-1.9,0.6-2.6,0.9c-0.7,0.3-1.2,0.9-1.5,1.5
								c-0.6,1.1-0.8,1.9-0.9,1.9c0,0,0-0.8,0.6-2.1c0.3-0.6,0.8-1.3,1.7-1.7c0.8-0.4,1.7-0.7,2.7-1
								C122.9,231.3,126,230.3,126,230.5z"/>
						</g>
					</g>
				</g>
			</g>
			<g>
				<g>
					<g>
						<g>
							<path class="st13" d="M128.5,233.5c0,0.1-0.7,0.4-1.9,0.7c-1.2,0.3-2.9,0.6-4.6,1.1c-1.8,0.5-3.3,1.2-4.2,2
								c-0.9,0.7-1.4,1.4-1.4,1.3c-0.1,0,0.3-0.8,1.2-1.6c0.9-0.9,2.5-1.7,4.3-2.2c1.8-0.5,3.5-0.7,4.7-0.9
								C127.7,233.6,128.4,233.4,128.5,233.5z"/>
						</g>
					</g>
				</g>
			</g>
			<g>
				<g>
					<g>
						<g>
							<path class="st13" d="M119,239c-0.1-0.1,0.9-1.1,2.5-1.7c1.6-0.6,3-0.4,3-0.3c0,0.2-1.3,0.3-2.8,0.8
								C120.1,238.4,119.1,239.1,119,239z"/>
						</g>
					</g>
				</g>
			</g>
			<g>
				<g>
					<g>
						<g>
							<path class="st12" d="M106,247.4l-29.5-8.3l-8.8,9.6c0,0,30.1,23.6,43.8,23.2"/>
						</g>
					</g>
				</g>
				<g>
					<g>
						<g>
							<g>
								<path class="st13" d="M111.4,272c0,0-1.3,0.2-3.7-0.3c-2.4-0.4-5.7-1.5-9.5-3.2c-7.8-3.5-17.8-9.8-28.2-17.5
									c-0.9-0.7-1.7-1.3-2.6-2l-0.2-0.2l0.2-0.2c3.1-3.4,6.1-6.6,8.8-9.6l0.1-0.1l0.2,0c8.6,2.4,16,4.5,21.2,6
									c2.6,0.8,4.6,1.4,6.1,1.8c0.7,0.2,1.2,0.4,1.6,0.5c0.4,0.1,0.6,0.2,0.5,0.2c0,0-0.2,0-0.6-0.1c-0.4-0.1-1-0.2-1.6-0.4
									c-1.5-0.4-3.5-0.9-6.1-1.6c-5.3-1.5-12.7-3.5-21.3-5.8l0.3-0.1c-2.7,3-5.7,6.2-8.8,9.6l0-0.4c0.8,0.6,1.7,1.3,2.6,1.9
									c10.4,7.7,20.3,14,28,17.6c3.8,1.8,7.1,2.9,9.4,3.4c0.6,0.1,1.1,0.2,1.5,0.3c0.5,0.1,0.8,0.1,1.1,0.1
									C111.1,271.9,111.4,271.9,111.4,272z"/>
							</g>
						</g>
					</g>
				</g>
			</g>
			<g>
				<g>
					<g>
						<g>
							<path class="st5" d="M125.3,213.8c0.1,0-0.1,0.9-0.4,2.4c-0.3,1.4-0.8,3.4-1.4,5.6c-0.6,2.2-1.1,4.1-1.6,5.5
								c-0.4,1.4-0.7,2.3-0.8,2.2c-0.1,0,0.1-0.9,0.4-2.4c0.3-1.4,0.8-3.4,1.4-5.6c0.6-2.2,1.1-4.1,1.6-5.5
								C124.9,214.6,125.3,213.8,125.3,213.8z"/>
						</g>
					</g>
				</g>
			</g>
			<g>
				<g>
					<g>
						<g>
							<path class="st5" d="M124,253.3c-0.1,0-0.4-1.5-1.1-3.7c-0.4-1.1-0.9-2.5-1.9-3.7c-1-1.2-2.4-2.3-4.1-2.6
								c-1.8-0.2-3.5,0.3-5,0.6c-1.5,0.3-2.9,0.6-4.2,0.8c-0.6,0.1-1.1,0.2-1.5,0.4c-0.4,0.2-0.7,0.5-0.8,0.8c-0.2,0.6,0.1,0.9,0,1
								c0,0-0.4-0.3-0.3-1c0.1-0.4,0.4-0.8,0.8-1c0.5-0.3,1-0.4,1.6-0.5c1.2-0.3,2.6-0.6,4.1-0.9c1.5-0.3,3.3-0.9,5.2-0.6
								c1.9,0.3,3.5,1.6,4.4,2.8c1,1.3,1.5,2.7,1.9,3.9c0.3,1.2,0.5,2.1,0.6,2.8C124,252.9,124,253.3,124,253.3z"/>
						</g>
					</g>
				</g>
			</g>
			<g>
				<g>
					<g>
						<g>
							<path class="st5" d="M128.3,246.9c-0.2,0.1-1-2.3-3.4-4c-2.4-1.7-4.9-1.9-4.8-2.1c0-0.1,0.6-0.1,1.6,0.1
								c1,0.2,2.3,0.7,3.6,1.6c1.3,0.9,2.1,2,2.6,2.9C128.2,246.3,128.3,246.9,128.3,246.9z"/>
						</g>
					</g>
				</g>
			</g>
			<g>
				<g>
					<g>
						<g>
							<path class="st5" d="M149.2,226.8c0,0,0,0.2-0.2,0.6c-0.2,0.5-0.3,1-0.6,1.7c-0.5,1.6-1.3,3.7-2.2,6.4
								c-0.9,2.7-2.1,5.9-3.6,9.4c-1.7,3.4-3.4,7.1-5.7,10.9c-2.2,3.8-5,7-7.9,9.4c-2.9,2.5-5.9,4.2-8.5,5.3
								c-2.7,1.1-4.9,1.6-6.5,1.8c-0.8,0.1-1.4,0.2-1.8,0.2c-0.4,0-0.6,0-0.6,0c0-0.1,0.9-0.1,2.4-0.4c1.6-0.3,3.8-0.8,6.4-2
								c5.2-2.3,11.7-7.1,16.1-14.7c2.2-3.7,4-7.5,5.7-10.8c1.6-3.4,2.7-6.6,3.7-9.3c1-2.7,1.8-4.8,2.4-6.3c0.3-0.7,0.5-1.3,0.7-1.7
								C149.1,227,149.2,226.8,149.2,226.8z"/>
						</g>
					</g>
				</g>
			</g>
			<g>
				<g>
					<g>
						<g>
							<path class="st5" d="M140.1,203c0.1,0.2-2.4,1-5.2,2.7c-2.8,1.6-4.8,3.4-4.9,3.3c-0.1-0.1,1.7-2.1,4.6-3.7
								C137.5,203.5,140.1,202.9,140.1,203z"/>
						</g>
					</g>
				</g>
			</g>
			<g>
				<g>
					<g>
						<g>
							<path class="st5" d="M74.6,227.4c-0.2,0,0.2-2.5,0.9-5.5c0.6-3,1.3-5.4,1.4-5.4c0.2,0-0.2,2.5-0.9,5.5
								C75.4,225,74.8,227.4,74.6,227.4z"/>
						</g>
					</g>
				</g>
			</g>
			<g>
				<g>
					<g>
						<g>
							<path class="st5" d="M116,280.3c0,0-0.6,0.3-1.6,0.8c-0.5,0.3-1.2,0.5-2,0.8c-0.8,0.3-1.7,0.7-2.7,1c-2,0.7-4.4,1.4-7.1,2.1
								c-2.7,0.6-5.7,1.1-8.9,1.4c-3.2,0.3-6.3,0.3-9.1,0.2c-2.8-0.2-5.3-0.4-7.3-0.8c-1-0.1-2-0.4-2.8-0.5
								c-0.8-0.2-1.5-0.3-2.1-0.5c-1.1-0.3-1.8-0.5-1.7-0.5c0,0,0.7,0.1,1.8,0.3c0.6,0.1,1.3,0.3,2.1,0.4c0.8,0.1,1.7,0.3,2.8,0.4
								c2.1,0.3,4.6,0.5,7.3,0.7c2.8,0.1,5.8,0,9-0.2c3.2-0.3,6.2-0.8,8.9-1.4c2.7-0.6,5.1-1.3,7.1-1.9c1-0.3,1.9-0.6,2.7-0.9
								c0.8-0.3,1.5-0.5,2-0.8C115.3,280.5,116,280.3,116,280.3z"/>
						</g>
					</g>
				</g>
			</g>
			<g>
				<g>
					<g>
						<g>
							<path class="st5" d="M90.1,296.9c0,0.1-3-0.4-6.4-1.6c-3.5-1.2-6.2-2.4-6.1-2.6c0.1-0.1,2.8,0.9,6.3,2
								C87.3,295.9,90.2,296.7,90.1,296.9z"/>
						</g>
					</g>
				</g>
			</g>
			<g class="st10">
				<g>
					<path d="M102.4,270.2c-2.1-0.9-4.1-2.1-6.3-2.4c-2.7-0.4-5,0.4-7.7,0.8c-8.1,1.3-14.1,0.3-21.8,0l-0.4,2.3
						c3.4,2.6,7.6,3.5,11.9,3.4c3.9-0.1,7.7-1.3,11.5-1.2c3.1,0.1,6,1,9,1.8c4.9,1.3,10.1,2.2,15.1,1.4c5-0.9,9.9-3.8,12-8.4
						C118.9,272.4,109.9,273.4,102.4,270.2z"/>
				</g>
			</g>
			<g class="st10">
				<g>
					<g>
						<g>
							<path d="M78.4,293.8c3.2,5.5,9.2,9.2,15.5,9.8c1.4,0.1,2.8,0.1,4.1-0.3c1.3-0.4,2.5-1.3,3.1-2.6c-1.4-1-3.1-1.5-4.8-2
								c-5.9-1.6-11.8-3.2-17.7-4.9"/>
						</g>
					</g>
				</g>
			</g>
		</g>
		<g>
			<g>
				<g>
					<g>
						<g>
							<path class="st11" d="M68.9,248.5L57.5,249c-1.1,0-2.2-1-2.7-2.6l-8.7-29.3c-0.8-2.8,0.4-5.9,2.3-6l16.4-1
								c1.2-0.1,2.4,1.1,2.8,3l5.9,24.8C74.8,243,72.5,248.4,68.9,248.5z"/>
						</g>
					</g>
				</g>
				<g>
					<g>
						<g>
							<g>
								<g>
									<g>
										<g>
											<path class="st12" d="M60.9,236.3c-1.3,1.3-8.4-4.5-10.5-4c-2.1,0.4-3.4,1.7-2.2,2.5c1.2,0.9,4.1,3.8,4.6,5.1
												c0,0,0.2-5.2-0.3-4.4c-0.6,0.8-1.5,2.2-0.1,2.8c1.4,0.6-0.7,5.2,0.3,5.7c1,0.6,4.5,1.8,5.3,1.8c0.4,0,3,1.1,5.5,2
												c2.8,1.1,5.8,1.2,8.6,0.2l1.4-0.5c2.2-0.8,3.7-2.9,3.7-5.2l0-4.7l1.7-3.8l-3-6.4l-5-1.7l1.9,6c-2,0.9-5.3,1.6-7,0.7
												c-1.7-0.9-8.3-7.5-9.5-6.9c-1.2,0.6-2.4,2.1-1.2,3.6C56,230.5,62.2,234.9,60.9,236.3"/>
										</g>
									</g>
								</g>
							</g>
						</g>
					</g>
				</g>
			</g>
		</g>
		<g>
			<g>
				<g>
					<path class="st11" d="M35.4,452.7c0,0,0.1-0.1,0.2-0.3c0.1-0.2,0.3-0.5,0.6-0.9c0.5-0.8,1.2-1.9,2.2-3.3
						c1.9-2.8,4.7-6.9,8.1-11.9c6.9-10,16.3-23.9,26.8-39.2c2-2.9,4-5.8,5.9-8.6l0,0.1c1.3-16,2.5-30.1,3.4-40.2
						c0.4-5,0.8-9.1,1-11.9c0.1-1.4,0.2-2.4,0.3-3.2c0-0.3,0.1-0.6,0.1-0.8c0-0.2,0-0.3,0-0.3c0,0,0,0.1,0,0.3c0,0.2,0,0.5,0,0.8
						c-0.1,0.8-0.1,1.8-0.2,3.2c-0.2,2.8-0.5,6.9-0.9,11.9c-0.8,10.1-1.9,24.3-3.2,40.3l0,0.1l0,0.1c-1.9,2.8-3.9,5.7-5.9,8.6
						c-10.5,15.3-20,29.1-26.9,39.1c-3.4,5-6.2,9-8.2,11.8c-1,1.4-1.7,2.4-2.3,3.2c-0.2,0.3-0.4,0.6-0.6,0.8
						C35.5,452.6,35.4,452.7,35.4,452.7z"/>
				</g>
			</g>
		</g>
		<g>
			<g>
				<g>
					<path class="st11" d="M94,324.3c0.1,0.1-2.5,1.7-5.3,4.1c-2.8,2.4-4.8,4.6-4.9,4.5c-0.1,0,0.4-0.7,1.2-1.6
						c0.8-0.9,2-2.1,3.4-3.3c1.4-1.2,2.8-2.2,3.8-2.8C93.3,324.6,94,324.2,94,324.3z"/>
				</g>
			</g>
		</g>
		<g>
			<g>
				<g>
					<path class="st11" d="M84.1,332.5c0,0.1-1.6-0.1-3.2-1.1c-1.6-1-2.5-2.2-2.4-2.3c0.1-0.1,1.2,0.9,2.7,1.9
						C82.7,331.9,84.1,332.4,84.1,332.5z"/>
				</g>
			</g>
		</g>
		<g>
			<g>
				<g>
					<path class="st11" d="M121.9,319.8c0,0.1-2.7-0.2-6.1-0.4c-3.4-0.2-6.1-0.2-6.1-0.3c0-0.1,2.7-0.4,6.1-0.2
						C119.2,319.1,121.9,319.7,121.9,319.8z"/>
				</g>
			</g>
		</g>
		<g>
			<g>
				<g>
					<path class="st11" d="M63.4,308c0,0.1-0.4,0.3-1.1,0.5c-0.7,0.2-1.8,0.3-2.9,0.1c-1.1-0.2-2.1-0.7-2.7-1.1
						c-0.6-0.4-0.9-0.8-0.9-0.8c0.1-0.1,1.5,1,3.7,1.4C61.6,308.4,63.4,307.8,63.4,308z"/>
				</g>
			</g>
		</g>
		<g>
			<g>
				<g>
					<path class="st9" d="M146.8,224.1c0,0-0.3,0.2-0.8,0.5c-0.5,0.3-1.3,0.6-2.3,0.9c-1,0.3-2.3,0.6-3.7,0.8
						c-1.4,0.2-3,0.3-4.6,0.2c-1.6-0.1-3.2-0.4-4.5-0.8c-1.4-0.4-2.6-0.9-3.5-1.3c-1-0.5-1.7-0.9-2.2-1.3c-0.5-0.3-0.7-0.5-0.7-0.6
						c0.1-0.1,1.1,0.7,3.1,1.5c1,0.4,2.1,0.8,3.5,1.2c1.3,0.3,2.9,0.6,4.4,0.7c1.6,0.1,3.1,0,4.5-0.1c1.4-0.2,2.6-0.4,3.6-0.7
						C145.5,224.6,146.7,224.1,146.8,224.1z"/>
				</g>
			</g>
		</g>
		<g>
			<g>
				<g>
					<path class="st9" d="M69.1,219.6c0-0.1,1.3,0.2,2.9,0.3c1.6,0.1,2.9,0,2.9,0.1c0,0.1-1.3,0.5-2.9,0.4
						C70.3,220.3,69.1,219.7,69.1,219.6z"/>
				</g>
			</g>
		</g>
		<g>
			<g>
				<g>
					<path class="st9" d="M123.3,219.3c0,0.1-10.6,1.2-23.8,2.3c-13.1,1.1-23.8,2-23.8,1.8c0-0.1,10.6-1.2,23.8-2.3
						C112.6,220,123.3,219.2,123.3,219.3z"/>
				</g>
			</g>
		</g>
	</g>
	<g>
		<g>
			<g>
				<g>
					<g>
						<g>
							<g>
								<g>
									<path class="st12" d="M116,195.9L116,195.9c0.5-0.9,0.7-1.9,0.7-3l-1.2-38.9c0.5-10.8-5.5-20.1-16.3-20.3l-1,0
										c-10.1,0.4-18.1,8.5-18.5,18.6c-0.3,9.4-0.6,19.8-0.3,24.8c0.6,10.4,11,11.5,11,11.5l0.3,4c0,0-0.8,7,7.3,9.4
										c6.3,1.8,13.1-2.1,16-4C114.8,197.6,115.5,196.8,116,195.9z"/>
								</g>
							</g>
						</g>
					</g>
					<g>
						<g>
							<g>
								<g>
									<g>
										<g>
											<path class="st13" d="M90.3,188.7c0,0,6.6,0.1,13.4-4.6c0,0-2.9,7.6-13.3,7.1L90.3,188.7z"/>
										</g>
									</g>
								</g>
							</g>
						</g>
					</g>
					<g>
						<g>
							<g>
								<g>
									<g>
										<g>
											<g>
												<g>
													<g>
														<path class="st5" d="M85.4,160.8c0,0.8,0.7,1.4,1.5,1.4c0.8,0,1.5-0.6,1.5-1.4c0-0.8-0.7-1.4-1.5-1.4
															C86.1,159.4,85.4,160,85.4,160.8z"/>
													</g>
												</g>
											</g>
										</g>
									</g>
								</g>
							</g>
						</g>
					</g>
					<g>
						<g>
							<g>
								<g>
									<g>
										<g>
											<g>
												<g>
													<g>
														<g>
															<path class="st5" d="M82.1,157.4c0.2,0.2,1.3-0.7,2.9-0.8c1.6-0.1,2.8,0.7,3,0.5c0.1-0.1-0.1-0.4-0.6-0.8
																c-0.5-0.3-1.4-0.7-2.4-0.6c-1,0-1.8,0.5-2.3,0.8C82.1,157,82,157.3,82.1,157.4z"/>
														</g>
													</g>
												</g>
											</g>
										</g>
									</g>
								</g>
							</g>
						</g>
					</g>
					<g>
						<g>
							<g>
								<g>
									<g>
										<g>
											<g>
												<g>
													<g>
														<path class="st5" d="M100.9,160.8c0,0.8,0.7,1.4,1.5,1.4c0.8,0,1.5-0.6,1.5-1.4c0-0.8-0.7-1.4-1.5-1.4
															C101.5,159.4,100.9,160,100.9,160.8z"/>
													</g>
												</g>
											</g>
										</g>
									</g>
								</g>
							</g>
						</g>
					</g>
					<g>
						<g>
							<g>
								<g>
									<g>
										<g>
											<g>
												<g>
													<g>
														<g>
															<path class="st5" d="M97.8,157c0.2,0.2,1.3-0.7,2.9-0.8c1.6-0.1,2.8,0.7,3,0.5c0.1-0.1-0.1-0.4-0.6-0.8
																c-0.5-0.3-1.4-0.7-2.4-0.6c-1,0-1.8,0.5-2.3,0.8C97.9,156.6,97.7,156.9,97.8,157z"/>
														</g>
													</g>
												</g>
											</g>
										</g>
									</g>
								</g>
							</g>
						</g>
					</g>
					<g>
						<g>
							<g>
								<g>
									<g>
										<g>
											<g>
												<g>
													<g>
														<path class="st5" d="M92.5,169.1c0-0.1-1-0.2-2.6-0.4c-0.4,0-0.8-0.1-0.9-0.4c-0.1-0.3,0-0.7,0.2-1.2
															c0.3-1,0.7-2.1,1.1-3.2c1.5-4.5,2.5-8.2,2.4-8.2c-0.2-0.1-1.5,3.5-3,8c-0.4,1.1-0.7,2.2-1,3.2c-0.1,0.5-0.4,1-0.1,1.6
															c0.1,0.3,0.4,0.5,0.7,0.6c0.3,0.1,0.5,0.1,0.7,0.1C91.5,169.2,92.5,169.2,92.5,169.1z"/>
													</g>
												</g>
											</g>
										</g>
									</g>
								</g>
							</g>
						</g>
					</g>
					<g>
						<g>
							<g>
								<g>
									<g>
										<path class="st5" d="M97.1,150.8c0.2,0.4,1.8,0.2,3.6,0.3c1.9,0.1,3.4,0.6,3.7,0.2c0.1-0.2-0.2-0.6-0.8-1
											c-0.6-0.4-1.6-0.7-2.7-0.8c-1.1-0.1-2.2,0.1-2.8,0.5C97.4,150.2,97,150.6,97.1,150.8z"/>
									</g>
								</g>
							</g>
						</g>
					</g>
					<g>
						<g>
							<g>
								<g>
									<g>
										<path class="st5" d="M82.5,152.8c0.3,0.4,1.4-0.1,2.7-0.1c1.3-0.1,2.5,0.1,2.7-0.3c0.1-0.2-0.1-0.5-0.6-0.9
											c-0.5-0.3-1.3-0.6-2.2-0.5c-0.9,0.1-1.7,0.4-2.1,0.8C82.5,152.2,82.3,152.6,82.5,152.8z"/>
									</g>
								</g>
							</g>
						</g>
					</g>
					<g>
						<g>
							<g>
								<g>
									<path class="st12" d="M114.2,164.2c0-1.6,1.3-2.9,2.9-2.8c1.9,0.1,4.1,1.1,4.2,5.1c0.1,7.1-7.1,5.7-7.1,5.5
										C114.2,171.9,114.2,167.2,114.2,164.2z"/>
								</g>
							</g>
						</g>
					</g>
					<g>
						<g>
							<g>
								<g>
									<path class="st13" d="M115.8,169.3c0,0,0.1,0.1,0.3,0.2c0.2,0.1,0.6,0.2,0.9,0c0.7-0.3,1.4-1.5,1.4-2.8
										c0-0.6-0.1-1.3-0.4-1.8c-0.2-0.5-0.6-0.9-0.9-0.9c-0.4-0.1-0.6,0.1-0.7,0.3c-0.1,0.2,0,0.3-0.1,0.4c0,0-0.2-0.1-0.1-0.4
										c0-0.1,0.1-0.3,0.3-0.4c0.2-0.1,0.4-0.2,0.7-0.2c0.5,0,1,0.5,1.3,1.1c0.3,0.6,0.5,1.2,0.5,2c0,1.4-0.7,2.8-1.8,3.1
										c-0.5,0.1-0.9,0-1.1-0.2C115.8,169.5,115.7,169.3,115.8,169.3z"/>
								</g>
							</g>
						</g>
					</g>
				</g>
			</g>
			<g>
				<g>
					<g>
						<path class="st5" d="M79.7,152.1c-0.1,1.4-1.9-3.4-1.2-4.7c-2,0.6-4.4-1-4.7-3.1c-0.3-2.1,1.5-4.2,3.7-4.3
							c-0.8-1.3-0.5-3.1,0.6-4.1c0.4-0.3,1.2-0.6,2.1-0.8c0-0.9,0.2-1.8,0.6-2.5c0.9-1.7,2.6-3,4.4-3.3c1.9-0.4,3.9,0.2,5.3,1.5
							c1.2-1.6,3.2-2.6,5.2-2.5c2,0.1,4,1.2,5.1,2.9c1.8-1.1,4.2-1.1,6.1-0.1c1.2,0.7,2.1,1.8,2.6,3c1.8-0.9,4.2-0.7,5.5,0.8
							c0.6,0.6,0.9,1.4,1.6,1.9c0.7,0.6,1.7,0.8,2.6,1.3c2.6,1.4,3.2,5.5,1.2,7.6c1,0.8,2,1.6,2.6,2.7c0.7,1.1,1,2.5,0.5,3.6
							c-0.6,1.4-2.2,2.2-2.8,3.6c-0.3,0.6-0.3,1.4-0.6,2c-0.4,1.1-1.4,1.8-2.5,2.2c-0.7,2.9-2.7,3.6-2.7,4.5
							c-0.6,8.8-4.2,3.7-6.1-14.9c-0.4-4.4,1.2-6.6-2.3-9.3c-0.5,0.5-0.8,1.2-1.3,1.7c-2,2.6-6.5,2.8-8.7,0.3
							c-0.8,1.4-2.3,2.3-3.8,2.5c-1.6,0.2-3.2-0.5-4.2-1.6c-1.3,1.1-4.3,3.1-6.5,1C82,144.1,80,147.3,79.7,152.1z"/>
					</g>
				</g>
			</g>
		</g>
		<g>
			<g>
				<g>
					<g>
						<path class="st13" d="M92.1,172.7c0.3,0.7,0.5,1.3,1,1.9s1.1,1,1.8,1c0.7,0,1.5-0.4,1.9-1c0.4-0.6,0.6-1.4,0.5-2.1
							c0-0.7-0.3-1.5-1-1.6c-0.3,0-0.6,0.1-0.8,0.2c-1.2,0.5-2.3,1-3.5,1.4"/>
					</g>
				</g>
			</g>
			<g>
				<g>
					<g>
						<g>
							<path class="st5" d="M93.5,175.6c0-0.1,0.8,0.2,1.9-0.2c0.5-0.2,1.1-0.6,1.4-1.3c0.3-0.7,0.4-1.5,0-2.3
								c-0.1-0.2-0.2-0.4-0.3-0.5c-0.1-0.1-0.1-0.1-0.3-0.1c-0.1,0-0.4,0.1-0.6,0.2c-0.2,0.1-0.4,0.2-0.6,0.2
								c-0.8,0.3-1.4,0.6-2,0.8c-1.2,0.4-1.9,0.7-1.9,0.6c0-0.1,0.6-0.5,1.7-1c0.6-0.3,1.2-0.6,2-0.9c0.2-0.1,0.4-0.2,0.6-0.3
								c0.2-0.1,0.4-0.2,0.6-0.3c0.1,0,0.3-0.1,0.5,0c0.2,0.1,0.3,0.2,0.4,0.3c0.2,0.2,0.3,0.4,0.4,0.7c0.4,1,0.3,2-0.1,2.8
								c-0.4,0.8-1.2,1.3-1.8,1.4c-0.6,0.2-1.2,0.1-1.5,0.1C93.6,175.7,93.5,175.6,93.5,175.6z"/>
						</g>
					</g>
				</g>
			</g>
		</g>
	</g>
</g>
<g>
	<path class="st7" d="M580.1,267.7c-10.1,1.6-14.6,14-13.7,24.1c0.9,10.2,5.1,20.1,3.9,30.2c-1.4,12.9-11.1,23.7-12.3,36.6
		c-1.3,15.2,9.4,28.7,12.6,43.6c1.6,7.3,1.3,14.9,4,21.9c4.6,11.7,17.9,19.2,30.3,17c12.3-2.2,22.3-13.9,22.5-26.4
		c0.2-11.7-7-22.7-6.1-34.3c0.6-8.6,5.7-16.8,4.6-25.3c-1.3-10.2-10.7-17.4-14.1-27.1c-3.3-9.7-0.1-20.4-1.3-30.6
		C608.6,279,598.5,266.3,580.1,267.7"/>
	<g>
		<path class="st7" d="M528.7,356.4c-1.7,17,5.8,36.9,14.5,51.6c8.7,14.7,22.3,26.4,38,33c1.8,0.7,4,1.4,5.5,0.2
			c1.2-1,1.4-2.8,1.4-4.4c0.1-17.9-5.7-35.7-16.3-50.1C561.2,372.4,545.8,361.6,528.7,356.4"/>
		<path class="st15" d="M528.7,356.4c-1.7,17,5.8,36.9,14.5,51.6c8.7,14.7,22.3,26.4,38,33c1.8,0.7,4,1.4,5.5,0.2
			c1.2-1,1.4-2.8,1.4-4.4c0.1-17.9-5.7-35.7-16.3-50.1C561.2,372.4,545.8,361.6,528.7,356.4"/>
	</g>
	<g>
		<path class="st5" d="M602.6,476.5c0,0-0.2-0.3-0.5-0.9c-0.3-0.7-0.7-1.7-1.2-2.8c-1-2.4-2.5-5.9-4.5-10.2
			c-3.9-8.6-9.6-20.2-16.9-32.6c-7.2-12.4-14.6-23.1-20.2-30.7c-2.8-3.8-5.1-6.8-6.7-8.9c-0.7-1-1.3-1.8-1.8-2.4
			c-0.4-0.6-0.6-0.9-0.6-0.9c0,0,0.3,0.2,0.7,0.8c0.5,0.6,1.2,1.4,2,2.3c1.7,2,4.1,5,6.9,8.7c5.7,7.5,13.2,18.2,20.4,30.6
			c7.3,12.4,12.9,24.2,16.6,32.8c1.9,4.3,3.3,7.9,4.2,10.3c0.4,1.2,0.8,2.1,1,2.8C602.6,476.2,602.7,476.5,602.6,476.5z"/>
	</g>
	<g>
		<path class="st5" d="M591.7,314.7c0,0,0.1,0.6,0.2,1.6c0.1,1.2,0.2,2.7,0.3,4.7c0.3,4.2,0.6,10,1.1,17.2
			c0.9,14.5,2.2,34.6,3.8,56.7c1.6,22.2,3.1,42.2,4.2,56.7c0.6,7.2,1,13,1.3,17.2c0.1,2,0.2,3.5,0.3,4.7c0.1,1.1,0.1,1.6,0,1.6
			c0,0-0.1-0.6-0.2-1.6c-0.1-1.1-0.3-2.7-0.5-4.7c-0.4-4.1-0.9-10-1.6-17.2c-1.3-14.5-2.9-34.5-4.5-56.7
			c-1.6-22.2-2.7-42.2-3.5-56.8c-0.3-7.2-0.6-13.1-0.8-17.2c-0.1-2-0.1-3.5-0.2-4.7C591.7,315.3,591.7,314.7,591.7,314.7z"/>
	</g>
	<g>
		<path class="st5" d="M576.1,452.3h42.5v31.2c0,11.3-9.1,20.4-20.4,20.4l0,0c-10.8,0-19.8-8.5-20.4-19.3L576.1,452.3z"/>
	</g>
</g>
</svg>
