<svg width="24" height="24" viewBox="0 0 24 24" fill="none" xmlns="http://www.w3.org/2000/svg">
<path d="M11.2386 1.11708C11.7338 0.960972 12.2662 0.960972 12.7614 1.11708L20.2614 3.48289C20.7662 3.642 21.2067 3.95514 21.5192 4.37708C21.8317 4.79903 22 5.30796 22 5.83038V10.7873C22 12.9926 21.5429 15.2682 20.1386 17.3806C18.7343 19.4901 16.4457 21.3419 12.95 22.8092C12.6496 22.9351 12.3265 23 12 23C11.6735 23 11.3504 22.9351 11.05 22.8092C7.55429 21.3419 5.26571 19.4901 3.86143 17.3806C2.45714 15.2682 2 12.9926 2 10.7873V5.83038C1.99996 5.30796 2.16834 4.79903 2.48083 4.37708C2.79333 3.95514 3.23377 3.642 3.73857 3.48289L11.2386 1.11708ZM12.11 3.12942C12.0389 3.10691 11.9625 3.10691 11.8914 3.12942L4.39143 5.49523C4.31931 5.51791 4.25637 5.5626 4.21169 5.62284C4.16701 5.68308 4.14291 5.75576 4.14286 5.83038V10.7873C4.14286 12.6997 4.53571 14.5416 5.65286 16.223C6.77286 17.9044 8.68286 19.5182 11.89 20.8659C11.9249 20.8802 11.9622 20.8876 12 20.8876C12.0378 20.8876 12.0751 20.8802 12.11 20.8659C15.3171 19.5196 17.2271 17.903 18.3471 16.2216C19.4643 14.5416 19.8571 12.7025 19.8571 10.7873V5.83038C19.8568 5.756 19.8325 5.68364 19.7879 5.62368C19.7432 5.56372 19.6805 5.51925 19.6086 5.49663L12.11 3.12942ZM13.0714 7.61882V11.8435C13.0714 12.1236 12.9585 12.3922 12.7576 12.5903C12.5567 12.7884 12.2842 12.8996 12 12.8996C11.7158 12.8996 11.4433 12.7884 11.2424 12.5903C11.0415 12.3922 10.9286 12.1236 10.9286 11.8435V7.61882C10.9286 7.3387 11.0415 7.07007 11.2424 6.872C11.4433 6.67393 11.7158 6.56265 12 6.56265C12.2842 6.56265 12.5567 6.67393 12.7576 6.872C12.9585 7.07007 13.0714 7.3387 13.0714 7.61882ZM13.4286 15.7161C13.4286 16.0895 13.2781 16.4477 13.0102 16.7118C12.7422 16.9759 12.3789 17.1243 12 17.1243C11.6211 17.1243 11.2578 16.9759 10.9898 16.7118C10.7219 16.4477 10.5714 16.0895 10.5714 15.7161C10.5714 15.3426 10.7219 14.9844 10.9898 14.7203C11.2578 14.4562 11.6211 14.3078 12 14.3078C12.3789 14.3078 12.7422 14.4562 13.0102 14.7203C13.2781 14.9844 13.4286 15.3426 13.4286 15.7161Z" fill="#C7C9CE"/>
</svg>
