<svg width="24" height="25" viewBox="0 0 24 25" fill="none" xmlns="http://www.w3.org/2000/svg">
<path fill-rule="evenodd" clip-rule="evenodd" d="M11.9996 14.6216L17.3026 19.9246C17.584 20.206 17.9657 20.3641 18.3636 20.3641C18.7616 20.3641 19.1432 20.206 19.4246 19.9246C19.706 19.6432 19.8641 19.2616 19.8641 18.8636C19.8641 18.4657 19.706 18.084 19.4246 17.8026L14.1196 12.4996L19.4236 7.19662C19.5629 7.05729 19.6733 6.89189 19.7487 6.70987C19.824 6.52785 19.8628 6.33277 19.8627 6.13577C19.8627 5.93877 19.8238 5.74371 19.7484 5.56172C19.673 5.37974 19.5624 5.21439 19.4231 5.07512C19.2838 4.93586 19.1184 4.8254 18.9364 4.75005C18.7543 4.6747 18.5592 4.63595 18.3623 4.63599C18.1653 4.63604 17.9702 4.67489 17.7882 4.75032C17.6062 4.82575 17.4409 4.93629 17.3016 5.07562L11.9996 10.3786L6.6966 5.07562C6.5583 4.93229 6.39284 4.81794 6.20987 4.73924C6.0269 4.66055 5.83009 4.61907 5.63092 4.61725C5.43176 4.61543 5.23422 4.65329 5.04984 4.72862C4.86546 4.80395 4.69793 4.91526 4.55703 5.05603C4.41612 5.1968 4.30466 5.36422 4.22916 5.54853C4.15365 5.73284 4.1156 5.93034 4.11724 6.12951C4.11887 6.32868 4.16016 6.52553 4.23869 6.70857C4.31721 6.89161 4.43141 7.05718 4.5746 7.19562L9.8796 12.4996L4.5756 17.8036C4.43241 17.9421 4.31821 18.1076 4.23969 18.2907C4.16116 18.4737 4.11987 18.6706 4.11824 18.8697C4.1166 19.0689 4.15465 19.2664 4.23016 19.4507C4.30566 19.635 4.41712 19.8024 4.55803 19.9432C4.69893 20.084 4.86646 20.1953 5.05084 20.2706C5.23522 20.346 5.43276 20.3838 5.63192 20.382C5.83109 20.3802 6.0279 20.3387 6.21087 20.26C6.39384 20.1813 6.5593 20.0669 6.6976 19.9236L11.9996 14.6216Z" fill="#fff"/>
</svg>
