<svg width="24" height="24" viewBox="0 0 24 24" fill="none" xmlns="http://www.w3.org/2000/svg">
<path fill-rule="evenodd" clip-rule="evenodd" d="M4.77778 3C3.79594 3 3 3.79594 3 4.77778V9.22222C3 10.2041 3.79594 11 4.77778 11H9.22222C10.2041 11 11 10.2041 11 9.22222V4.77778C11 3.79594 10.2041 3 9.22222 3H4.77778ZM4.77778 4.77778H9.22222V9.22222H4.77778V4.77778Z" fill="#009D06"/>
<path fill-rule="evenodd" clip-rule="evenodd" d="M14.7778 3C13.7959 3 13 3.79594 13 4.77778V9.22222C13 10.2041 13.7959 11 14.7778 11H19.2222C20.2041 11 21 10.2041 21 9.22222V4.77778C21 3.79594 20.2041 3 19.2222 3H14.7778ZM14.7778 4.77778H19.2222V9.22222H14.7778V4.77778Z" fill="#009D06"/>
<path fill-rule="evenodd" clip-rule="evenodd" d="M3 14.7778C3 13.7959 3.79594 13 4.77778 13H9.22222C10.2041 13 11 13.7959 11 14.7778V19.2222C11 20.2041 10.2041 21 9.22222 21H4.77778C3.79594 21 3 20.2041 3 19.2222V14.7778ZM9.22222 14.7778H4.77778V19.2222H9.22222V14.7778Z" fill="#009D06"/>
<path fill-rule="evenodd" clip-rule="evenodd" d="M14.7778 13C13.7959 13 13 13.7959 13 14.7778V19.2222C13 20.2041 13.7959 21 14.7778 21H19.2222C20.2041 21 21 20.2041 21 19.2222V14.7778C21 13.7959 20.2041 13 19.2222 13H14.7778ZM14.7778 14.7778H19.2222V19.2222H14.7778V14.7778Z" fill="#009D06"/>
</svg>
