<svg width="24" height="25" viewBox="0 0 24 25" fill="none" xmlns="http://www.w3.org/2000/svg">
<g clip-path="url(#clip0_357_12009)">
<path fill-rule="evenodd" clip-rule="evenodd" d="M5 3.5C4.20435 3.5 3.44129 3.81607 2.87868 4.37868C2.31607 4.94129 2 5.70435 2 6.5V16.5C2 17.2956 2.31607 18.0587 2.87868 18.6213C3.44129 19.1839 4.20435 19.5 5 19.5H16.667L20 22C20.824 22.618 22 22.03 22 21V6.5C22 5.70435 21.6839 4.94129 21.1213 4.37868C20.5587 3.81607 19.7956 3.5 19 3.5H5ZM13 12.5H16C16.2652 12.5 16.5196 12.6054 16.7071 12.7929C16.8946 12.9804 17 13.2348 17 13.5C17 13.7652 16.8946 14.0196 16.7071 14.2071C16.5196 14.3946 16.2652 14.5 16 14.5H13C12.7348 14.5 12.4804 14.3946 12.2929 14.2071C12.1054 14.0196 12 13.7652 12 13.5C12 13.2348 12.1054 12.9804 12.2929 12.7929C12.4804 12.6054 12.7348 12.5 13 12.5ZM8 8.5H16C16.2549 8.50028 16.5 8.59788 16.6854 8.77285C16.8707 8.94782 16.9822 9.18695 16.9972 9.44139C17.0121 9.69584 16.9293 9.94638 16.7657 10.1418C16.6021 10.3373 16.3701 10.4629 16.117 10.493L16 10.5H8C7.74512 10.4997 7.49997 10.4021 7.31463 10.2272C7.1293 10.0522 7.01777 9.81305 7.00283 9.55861C6.98789 9.30416 7.07067 9.05362 7.23426 8.85817C7.39785 8.66271 7.6299 8.5371 7.883 8.507L8 8.5Z" fill="#009D06"/>
</g>
<defs>
<clipPath id="clip0_357_12009">
<rect width="24" height="24" fill="white" transform="translate(0 0.5)"/>
</clipPath>
</defs>
</svg>
