<svg width="12" height="12" viewBox="0 0 12 12" fill="none" xmlns="http://www.w3.org/2000/svg">
<path d="M5.93179 0.152349C6.25475 0.151506 6.57096 0.244748 6.84179 0.420683C7.11531 0.591361 7.33242 0.838907 7.46596 1.13235L11.4676 9.38652C11.5831 9.61635 11.6426 9.8701 11.6426 10.1273C11.6426 10.2353 11.631 10.3432 11.6076 10.4482C11.5399 10.8085 11.3554 11.1365 11.0826 11.3815C10.8101 11.6283 10.4648 11.7798 10.0988 11.8135C9.73269 11.8472 9.36557 11.7611 9.05262 11.5682L6.26429 9.56152C6.15346 9.51485 6.03446 9.49152 5.91429 9.49152C5.78474 9.4913 5.65692 9.52125 5.54096 9.57902L2.91596 11.434C2.59717 11.6257 2.22363 11.7057 1.85429 11.6615C1.49965 11.6216 1.1668 11.4703 0.903682 11.2292C0.640564 10.9881 0.460747 10.6697 0.390124 10.3198C0.321146 9.96806 0.36187 9.60357 0.50679 9.27568L4.39762 1.10902C4.53833 0.822069 4.75667 0.58032 5.02785 0.411217C5.29904 0.242114 5.6122 0.15243 5.93179 0.152349Z" fill="#009d06"/>
</svg>
