<svg width="24" height="24" viewBox="0 0 24 24" fill="none" xmlns="http://www.w3.org/2000/svg">
<path fill-rule="evenodd" clip-rule="evenodd" d="M7 5C6.44772 5 6 5.44772 6 6V19C6 19.5523 6.44772 20 7 20H17C17.5523 20 18 19.5523 18 19V6C18 5.44772 17.5523 5 17 5H7ZM4 6C4 4.34315 5.34315 3 7 3H17C18.6569 3 20 4.34315 20 6V19C20 20.6569 18.6569 22 17 22H7C5.34315 22 4 20.6569 4 19V6Z" fill="#009d06"/>
<path fill-rule="evenodd" clip-rule="evenodd" d="M8 9C8 8.44772 8.44772 8 9 8H15C15.5523 8 16 8.44772 16 9C16 9.55228 15.5523 10 15 10H9C8.44772 10 8 9.55228 8 9ZM8 13C8 12.4477 8.44772 12 9 12H15C15.5523 12 16 12.4477 16 13C16 13.5523 15.5523 14 15 14H9C8.44772 14 8 13.5523 8 13ZM8 17C8 16.4477 8.44772 16 9 16H13C13.5523 16 14 16.4477 14 17C14 17.5523 13.5523 18 13 18H9C8.44772 18 8 17.5523 8 17Z" fill="#009d06"/>
</svg>
