<svg width="24" height="24" viewBox="0 0 24 24" fill="none" xmlns="http://www.w3.org/2000/svg">
<path d="M11.9991 8.99961C11.0768 8.99961 10.1923 9.36849 9.54008 10.0251C8.8879 10.6817 8.52151 11.5722 8.52151 12.5008C8.52151 13.4294 8.8879 14.3199 9.54008 14.9765C10.1923 15.6331 11.0768 16.002 11.9991 16.002C12.9215 16.002 13.806 15.6331 14.4582 14.9765C15.1104 14.3199 15.4768 13.4294 15.4768 12.5008C15.4768 11.5722 15.1104 10.6817 14.4582 10.0251C13.806 9.36849 12.9215 8.99961 11.9991 8.99961ZM10.2603 12.5008C10.2603 12.0365 10.4435 11.5912 10.7696 11.2629C11.0957 10.9346 11.538 10.7502 11.9991 10.7502C12.4603 10.7502 12.9026 10.9346 13.2287 11.2629C13.5547 11.5912 13.7379 12.0365 13.7379 12.5008C13.7379 12.9651 13.5547 13.4103 13.2287 13.7386C12.9026 14.0669 12.4603 14.2514 11.9991 14.2514C11.538 14.2514 11.0957 14.0669 10.7696 13.7386C10.4435 13.4103 10.2603 12.9651 10.2603 12.5008ZM16.5513 6.19518C16.2308 6.25353 15.9003 6.18194 15.6319 5.99602C15.3635 5.81009 15.179 5.5249 15.1186 5.2026L14.6665 2.72377C14.6452 2.60267 14.5882 2.49083 14.5029 2.40279C14.4176 2.31474 14.308 2.25457 14.1883 2.2301C12.7442 1.9233 11.2523 1.9233 9.80823 2.2301C9.68852 2.25457 9.5789 2.31474 9.49362 2.40279C9.40833 2.49083 9.35134 2.60267 9.33005 2.72377L8.8797 5.2026C8.84682 5.37915 8.77631 5.54642 8.67304 5.6929C8.56978 5.83938 8.4362 5.96159 8.28151 6.0511C8.12683 6.14061 7.95471 6.19531 7.77701 6.21142C7.59931 6.22753 7.42025 6.20467 7.25217 6.14441L4.88913 5.29713C4.77433 5.25693 4.65039 5.25126 4.53244 5.28079C4.41449 5.31032 4.30763 5.37378 4.2249 5.46343C3.23494 6.56129 2.48708 7.85772 2.03052 9.26745C1.99241 9.384 1.98993 9.50939 2.02342 9.62737C2.0569 9.74535 2.12479 9.85049 2.21831 9.92917L4.13448 11.559C4.18665 11.6021 4.23359 11.6494 4.27533 11.7008C4.38009 11.8243 4.45958 11.9674 4.50922 12.1219C4.55886 12.2764 4.57768 12.4393 4.56459 12.6012C4.5515 12.763 4.50677 12.9207 4.43295 13.0651C4.35914 13.2095 4.25771 13.3378 4.13448 13.4426L2.21831 15.0724C2.12479 15.1511 2.0569 15.2562 2.02342 15.3742C1.98993 15.4922 1.99241 15.6176 2.03052 15.7341C2.48759 17.144 3.23605 18.4404 4.22664 19.5381C4.30936 19.6278 4.41622 19.6912 4.53417 19.7208C4.65213 19.7503 4.77607 19.7446 4.89086 19.7044L7.25565 18.8572C7.42371 18.7963 7.60291 18.7729 7.78082 18.7888C7.95873 18.8046 8.13108 18.8592 8.28593 18.9488C8.44078 19.0384 8.5744 19.1609 8.67754 19.3077C8.78067 19.4545 8.85084 19.6221 8.88318 19.799L9.33179 22.2778C9.377 22.5229 9.56653 22.7189 9.80997 22.7697C11.2546 23.0768 12.7471 23.0768 14.1918 22.7697C14.3109 22.745 14.42 22.685 14.5049 22.5973C14.5898 22.5096 14.6467 22.3983 14.6682 22.2778L15.1203 19.799C15.1532 19.6224 15.2237 19.4551 15.327 19.3087C15.4302 19.1622 15.5638 19.04 15.7185 18.9505C15.8732 18.861 16.0453 18.8063 16.223 18.7901C16.4007 18.774 16.5797 18.7969 16.7478 18.8572L19.1109 19.7044C19.3456 19.7885 19.6082 19.7219 19.7751 19.5381C20.7651 18.4403 21.5129 17.1438 21.9695 15.7341C22.0076 15.6176 22.0101 15.4922 21.9766 15.3742C21.9431 15.2562 21.8752 15.1511 21.7817 15.0724L19.8655 13.4426C19.7291 13.3271 19.6194 13.1829 19.5442 13.0202C19.4689 12.8575 19.43 12.6802 19.43 12.5008C19.43 12.3213 19.4689 12.144 19.5442 11.9813C19.6194 11.8186 19.7291 11.6745 19.8655 11.559L21.7817 9.92917C21.8752 9.85049 21.9431 9.74535 21.9766 9.62737C22.0101 9.50939 22.0076 9.384 21.9695 9.26745C21.5119 7.85742 20.7628 6.56097 19.7716 5.46343C19.6889 5.37378 19.582 5.31032 19.4641 5.28079C19.3461 5.25126 19.2222 5.25693 19.1074 5.29713L16.7426 6.14441C16.6793 6.16563 16.6149 6.18316 16.5496 6.19693M5.03866 7.21227L6.66793 7.79521C7.07333 7.94051 7.50523 7.99549 7.9338 7.95635C8.36236 7.91721 8.77738 7.78488 9.15019 7.5685C9.52301 7.35212 9.84472 7.05685 10.0931 6.70308C10.3415 6.34931 10.5107 5.94547 10.589 5.51945L10.8967 3.82139C11.627 3.72763 12.3661 3.72763 13.0963 3.82139L13.4058 5.51945C13.4835 5.94576 13.6524 6.34996 13.9006 6.70406C14.1489 7.05815 14.4707 7.35367 14.8436 7.57015C15.2166 7.78662 15.6319 7.91887 16.0607 7.95773C16.4894 7.99659 16.9215 7.94114 17.3269 7.79521L18.9544 7.20877C19.3995 7.7958 19.7647 8.42834 20.0498 9.1064L18.7388 10.2215C18.4093 10.5015 18.1446 10.8506 17.963 11.2442C17.7814 11.6379 17.6873 12.0667 17.6873 12.5008C17.6873 12.9348 17.7814 13.3637 17.963 13.7573C18.1446 14.151 18.4093 14.5 18.7388 14.78L20.0516 15.8952C19.767 16.5715 19.3989 17.209 18.9561 17.7928L17.3269 17.2081C16.9214 17.0628 16.4896 17.0078 16.061 17.047C15.6324 17.0861 15.2174 17.2184 14.8446 17.4348C14.4718 17.6512 14.1501 17.9465 13.9017 18.3002C13.6533 18.654 13.4841 19.0578 13.4058 19.4839L13.0963 21.1819C12.3661 21.2757 11.627 21.2757 10.8967 21.1819L10.589 19.4839C10.5112 19.0576 10.3424 18.6534 10.0941 18.2993C9.84588 17.9452 9.52411 17.6496 9.15114 17.4332C8.77817 17.2167 8.36291 17.0845 7.93413 17.0456C7.50535 17.0067 7.07331 17.0622 6.66793 17.2081L5.04388 17.7928C4.60109 17.209 4.23305 16.5715 3.94843 15.8952L5.25949 14.7783C5.58862 14.4983 5.85312 14.1493 6.03454 13.7558C6.21597 13.3623 6.30996 12.9337 6.30996 12.4999C6.30996 12.0661 6.21597 11.6375 6.03454 11.244C5.85312 10.8505 5.58862 10.5015 5.25949 10.2215L3.94669 9.1064C4.23417 8.42834 4.59932 7.7958 5.04214 7.20877" fill="#C7C9CE"/>
</svg>
