<svg width="21" height="21" viewBox="0 0 21 21" fill="none" xmlns="http://www.w3.org/2000/svg">
<g clip-path="url(#clip0_717_3569)">
<path d="M20.7064 19.351L15.9092 14.5497C17.2309 12.9492 17.9652 10.9607 17.9652 8.87529C17.9652 6.49884 17.0351 4.2679 15.3218 2.57044C13.6085 0.921478 11.3568 0 8.95816 0C6.55956 0 4.30782 0.921478 2.59453 2.61894C-0.929947 6.11085 -0.929947 11.7367 2.59453 15.1801C4.30782 16.8776 6.55956 17.7991 8.95816 17.7991C10.9652 17.7991 12.9232 17.1201 14.4896 15.9076L19.3358 20.709C19.5316 20.903 19.7763 21 20.0211 21C20.2659 21 20.5106 20.903 20.7064 20.709C21.098 20.321 21.098 19.6905 20.7064 19.351ZM4.01411 13.8222C1.27285 11.1062 1.27285 6.69284 4.01411 3.97691C5.33579 2.66744 7.09802 1.93995 8.95816 1.93995C10.8183 1.93995 12.5805 2.66744 13.9022 3.97691C15.2239 5.28637 15.9582 7.03233 15.9582 8.87529C15.9582 10.7182 15.2239 12.4642 13.9022 13.7737C12.5805 15.0831 10.8183 15.8106 8.95816 15.8106C7.09802 15.8591 5.33579 15.1316 4.01411 13.8222Z" fill="#fff"/>
</g>
<defs>
<clipPath id="clip0_717_3569">
<rect width="21" height="21" fill="white"/>
</clipPath>
</defs>
</svg>
