<svg width="41" height="37" viewBox="0 0 41 37" fill="none" xmlns="http://www.w3.org/2000/svg">
<path fill-rule="evenodd" clip-rule="evenodd" d="M4.75 0.25C3.68913 0.25 2.67172 0.671427 1.92157 1.42157C1.17143 2.17172 0.75 3.18913 0.75 4.25V32.25C0.75 33.3109 1.17143 34.3283 1.92157 35.0784C2.67172 35.8286 3.68913 36.25 4.75 36.25H36.75C37.8109 36.25 38.8283 35.8286 39.5784 35.0784C40.3286 34.3283 40.75 33.3109 40.75 32.25V4.25C40.75 3.18913 40.3286 2.17172 39.5784 1.42157C38.8283 0.671427 37.8109 0.25 36.75 0.25H4.75ZM14 11.51C14.0444 11.1276 14.1775 10.7609 14.3888 10.4392C14.6 10.1174 14.8836 9.84944 15.2168 9.6567C15.55 9.46397 15.9236 9.35178 16.3079 9.32908C16.6922 9.30639 17.0764 9.37382 17.43 9.526C18.438 9.958 20.566 10.93 23.262 12.486C25.1567 13.5689 26.9865 14.7616 28.742 16.058C29.0507 16.2877 29.3013 16.5863 29.474 16.9301C29.6468 17.2739 29.7367 17.6533 29.7367 18.038C29.7367 18.4227 29.6468 18.8021 29.474 19.1459C29.3013 19.4897 29.0507 19.7883 28.742 20.018C26.9864 21.3131 25.1566 22.5044 23.262 23.586C21.3774 24.6868 19.4301 25.6765 17.43 26.55C17.0765 26.7026 16.6921 26.7704 16.3077 26.7479C15.9233 26.7254 15.5495 26.6133 15.2161 26.4205C14.8828 26.2277 14.5992 25.9595 14.388 25.6375C14.1769 25.3155 14.044 24.9486 14 24.566C13.76 22.3983 13.6425 20.2189 13.648 18.038C13.648 14.936 13.872 12.6 14 11.51Z" fill="#009D06"/>
</svg>
